999
dxfrw 0.6.3
  0
SECTION
  2
HEADER
  9
$ACADVER
  1
AC1021
  9
$DWGCODEPAGE
  3
ANSI_1252
  9
$INSBASE
 10
0
 20
0
 30
0
  9
$EXTMIN
 10
-272.2027787457495
 20
-293.5179321898268
 30
0
  9
$EXTMAX
 10
335.3873559237759
 20
45.77274575652292
 30
0
  9
$LIMMIN
 10
0
 20
0
  9
$LIMMAX
 10
420
 20
297
  9
$ORTHOMODE
 70
    0
  9
$REGENMODE
 70
    1
  9
$FILLMODE
 70
    1
  9
$QTEXTMODE
 70
    0
  9
$MIRRTEXT
 70
    0
  9
$LTSCALE
 40
1
  9
$ATTMODE
 70
    0
  9
$TEXTSIZE
 40
2.5
  9
$TRACEWID
 40
15.68
  9
$TEXTSTYLE
  7
STANDARD
  9
$CLAYER
  8
0
  9
$CELTYPE
  6
BYLAYER
  9
$CECOLOR
 62
  256
  9
$CELTSCALE
 40
1
  9
$DISPSILH
 70
    0
  9
$DIMSCALE
 40
2.5
  9
$DIMASZ
 40
2.5
  9
$DIMEXO
 40
0.625
  9
$DIMDLI
 40
3.75
  9
$DIMRND
 40
0
  9
$DIMDLE
 40
0
  9
$DIMEXE
 40
1.25
  9
$DIMTP
 40
0
  9
$DIMTM
 40
0
  9
$DIMTXT
 40
2.5
  9
$DIMCEN
 40
2.5
  9
$DIMTSZ
 40
0
  9
$DIMTOL
 70
    0
  9
$DIMLIM
 70
    0
  9
$DIMTIH
 70
    0
  9
$DIMTOH
 70
    0
  9
$DIMSE1
 70
    0
  9
$DIMSE2
 70
    0
  9
$DIMTAD
 70
    1
  9
$DIMZIN
 70
    8
  9
$DIMBLK
  1

  9
$DIMASO
 70
    1
  9
$DIMSHO
 70
    1
  9
$DIMPOST
  1

  9
$DIMAPOST
  1

  9
$DIMALT
 70
    0
  9
$DIMALTD
 70
    3
  9
$DIMALTF
 40
0.03937
  9
$DIMLFAC
 40
1
  9
$DIMTOFL
 70
    1
  9
$DIMTVP
 40
0
  9
$DIMTIX
 70
    0
  9
$DIMSOXD
 70
    0
  9
$DIMSAH
 70
    0
  9
$DIMBLK1
  1

  9
$DIMBLK2
  1

  9
$DIMSTYLE
  2
Standard
  9
$DIMCLRD
 70
    0
  9
$DIMCLRE
 70
    0
  9
$DIMCLRT
 70
    0
  9
$DIMTFAC
 40
1
  9
$DIMGAP
 40
0.625
  9
$DIMJUST
 70
    0
  9
$DIMSD1
 70
    0
  9
$DIMSD2
 70
    0
  9
$DIMTOLJ
 70
    0
  9
$DIMTZIN
 70
    8
  9
$DIMALTZ
 70
    0
  9
$DIMALTTZ
 70
    0
  9
$DIMUPT
 70
    0
  9
$DIMDEC
 70
    2
  9
$DIMTDEC
 70
    2
  9
$DIMALTU
 70
    2
  9
$DIMALTTD
 70
    3
  9
$DIMTXSTY
  7
STANDARD
  9
$DIMAUNIT
 70
    0
  9
$DIMADEC
 70
    0
  9
$DIMALTRND
 40
0
  9
$DIMAZIN
 70
    0
  9
$DIMDSEP
 70
   44
  9
$DIMATFIT
 70
    3
  9
$DIMFRAC
 70
    0
  9
$DIMLDRBLK
  1
STANDARD
  9
$DIMLUNIT
 70
    2
  9
$DIMLWD
 70
   -2
  9
$DIMLWE
 70
   -2
  9
$DIMTMOVE
 70
    0
  9
$DIMFXL
 40
1
  9
$DIMFXLON
 70
    0
  9
$DIMJOGANG
 40
0.7854
  9
$DIMTFILL
 70
    0
  9
$DIMTFILLCLR
 70
    0
  9
$DIMARCSYM
 70
    0
  9
$DIMLTYPE
  6

  9
$DIMLTEX1
  6

  9
$DIMLTEX2
  6

  9
$LUNITS
 70
    2
  9
$LUPREC
 70
    4
  9
$SKETCHINC
 40
1
  9
$FILLETRAD
 40
0
  9
$AUNITS
 70
    0
  9
$AUPREC
 70
    2
  9
$MENU
  1
.
  9
$ELEVATION
 40
0
  9
$PELEVATION
 40
0
  9
$THICKNESS
 40
0
  9
$LIMCHECK
 70
    0
  9
$CHAMFERA
 40
0
  9
$CHAMFERB
 40
0
  9
$CHAMFERC
 40
0
  9
$CHAMFERD
 40
0
  9
$SKPOLY
 70
    0
  9
$USRTIMER
 70
    1
  9
$ANGBASE
 50
0
  9
$ANGDIR
 70
    0
  9
$PDMODE
 70
   34
  9
$PDSIZE
 40
0
  9
$PLINEWID
 40
0
  9
$SPLFRAME
 70
    0
  9
$SPLINETYPE
 70
    2
  9
$SPLINESEGS
 70
    8
  9
$HANDSEED
  5
20000
  9
$SURFTAB1
 70
    6
  9
$SURFTAB2
 70
    6
  9
$SURFTYPE
 70
    6
  9
$SURFU
 70
    6
  9
$SURFV
 70
    6
  9
$UCSBASE
  2

  9
$UCSNAME
  2

  9
$UCSORG
 10
0
 20
0
 30
0
  9
$UCSXDIR
 10
1
 20
0
 30
0
  9
$UCSYDIR
 10
0
 20
1
 30
0
  9
$UCSORTHOREF
  2

  9
$UCSORTHOVIEW
 70
    0
  9
$UCSORGTOP
 10
0
 20
0
 30
0
  9
$UCSORGBOTTOM
 10
0
 20
0
 30
0
  9
$UCSORGLEFT
 10
0
 20
0
 30
0
  9
$UCSORGRIGHT
 10
0
 20
0
 30
0
  9
$UCSORGFRONT
 10
0
 20
0
 30
0
  9
$UCSORGBACK
 10
0
 20
0
 30
0
  9
$PUCSBASE
  2

  9
$PUCSNAME
  2

  9
$PUCSORG
 10
0
 20
0
 30
0
  9
$PUCSXDIR
 10
1
 20
0
 30
0
  9
$PUCSYDIR
 10
0
 20
1
 30
0
  9
$PUCSORTHOREF
  2

  9
$PUCSORTHOVIEW
 70
    0
  9
$PUCSORGTOP
 10
0
 20
0
 30
0
  9
$PUCSORGBOTTOM
 10
0
 20
0
 30
0
  9
$PUCSORGLEFT
 10
0
 20
0
 30
0
  9
$PUCSORGRIGHT
 10
0
 20
0
 30
0
  9
$PUCSORGFRONT
 10
0
 20
0
 30
0
  9
$PUCSORGBACK
 10
0
 20
0
 30
0
  9
$USERI1
 70
    0
  9
$USERI2
 70
    0
  9
$USERI3
 70
    0
  9
$USERI4
 70
    0
  9
$USERI5
 70
    0
  9
$USERR1
 40
0
  9
$USERR2
 40
0
  9
$USERR3
 40
0
  9
$USERR4
 40
0
  9
$USERR5
 40
0
  9
$WORLDVIEW
 70
    1
  9
$SHADEDGE
 70
    3
  9
$SHADEDIF
 70
   70
  9
$TILEMODE
 70
    1
  9
$MAXACTVP
 70
   64
  9
$PINSBASE
 10
0
 20
0
 30
0
  9
$PLIMCHECK
 70
    0
  9
$PEXTMIN
 10
0
 20
0
 30
0
  9
$PEXTMAX
 10
0
 20
0
 30
0
  9
$SNAPSTYLE
 70
    0
  9
$PLIMMIN
 10
0
 20
0
  9
$PLIMMAX
 10
210
 20
297
  9
$UNITMODE
 70
    0
  9
$VISRETAIN
 70
    1
  9
$PLINEGEN
 70
    0
  9
$PSLTSCALE
 70
    1
  9
$TREEDEPTH
 70
 3020
  9
$CMLSTYLE
  2
Standard
  9
$CMLJUST
 70
    0
  9
$CMLSCALE
 40
20
  9
$PROXYGRAPHICS
 70
    1
  9
$MEASUREMENT
 70
    1
  9
$CELWEIGHT
370
   -1
  9
$ENDCAPS
280
    0
  9
$JOINSTYLE
280
    0
  9
$LWDISPLAY
290
    0
  9
$INSUNITS
 70
    4
  9
$HYPERLINKBASE
  1

  9
$STYLESHEET
  1

  9
$XEDIT
290
    1
  9
$CEPSNTYPE
380
    0
  9
$PSTYLEMODE
290
    1
  9
$EXTNAMES
290
    1
  9
$PSVPSCALE
 40
1
  9
$OLESTARTUP
290
    0
  9
$SORTENTS
280
  127
  9
$INDEXCTL
280
    0
  9
$HIDETEXT
280
    1
  9
$XCLIPFRAME
290
    0
  9
$HALOGAP
280
    0
  9
$OBSCOLOR
 70
  257
  9
$OBSLTYPE
280
    0
  9
$INTERSECTIONDISPLAY
280
    0
  9
$INTERSECTIONCOLOR
 70
  257
  9
$DIMASSOC
280
    1
  9
$PROJECTNAME
  1

  9
$CAMERADISPLAY
290
    0
  9
$LENSLENGTH
 40
50
  9
$CAMERAHEIGHT
 40
0
  9
$STEPSPERSEC
 40
2
  9
$STEPSIZE
 40
50
  9
$3DDWFPREC
 40
2
  9
$PSOLWIDTH
 40
5
  9
$PSOLHEIGHT
 40
80
  9
$LOFTANG1
 40
1.570796326794897
  9
$LOFTANG2
 40
1.570796326794897
  9
$LOFTMAG1
 40
0
  9
$LOFTMAG2
 40
0
  9
$LOFTPARAM
 70
    7
  9
$LOFTNORMALS
280
    1
  9
$LATITUDE
 40
1
  9
$LONGITUDE
 40
1
  9
$NORTHDIRECTION
 40
0
  9
$TIMEZONE
 70
-8000
  9
$LIGHTGLYPHDISPLAY
280
    1
  9
$TILEMODELIGHTSYNCH
280
    1
  9
$SOLIDHIST
280
    1
  9
$SHOWHIST
280
    1
  9
$DWFFRAME
280
    2
  9
$DGNFRAME
280
    0
  9
$REALWORLDSCALE
290
    1
  9
$INTERFERECOLOR
 62
    1
  9
$CSHADOW
280
    0
  9
$SHADOWPLANELOCATION
 40
0
  0
ENDSEC
  0
SECTION
  2
CLASSES
  0
ENDSEC
  0
SECTION
  2
TABLES
  0
TABLE
  2
VPORT
  5
8
330
0
100
AcDbSymbolTable
 70
    1
  0
VPORT
  5
31
330
2
100
AcDbSymbolTableRecord
100
AcDbViewportTableRecord
  2
*ACTIVE
 70
    0
 10
0
 20
0
 11
1
 21
1
 12
242.7522322796388
 22
38.00426337058925
 13
0
 23
0
 14
10
 24
10
 15
10
 25
10
 16
0
 26
0
 36
1
 17
0
 27
0
 37
0
 40
378.6174738294954
 41
1.963613550815558
 42
50
 43
0
 44
0
 50
0
 51
0
 71
    0
 72
  100
 73
    1
 74
    3
 75
    0
 76
    1
 77
    0
 78
    0
281
    0
 65
    1
110
0
120
0
130
0
111
1
121
0
131
0
112
0
122
1
132
0
 79
    0
146
0
348
10020
 60
    7
 61
    5
292
1
282
    1
141
0
142
0
 63
  250
421
3358443
  0
ENDTAB
  0
TABLE
  2
LTYPE
  5
5
330
0
100
AcDbSymbolTable
 70
    4
  0
LTYPE
  5
14
330
5
100
AcDbSymbolTableRecord
100
AcDbLinetypeTableRecord
  2
ByBlock
 70
    0
  3

 72
   65
 73
    0
 40
0
  0
LTYPE
  5
15
330
5
100
AcDbSymbolTableRecord
100
AcDbLinetypeTableRecord
  2
ByLayer
 70
    0
  3

 72
   65
 73
    0
 40
0
  0
LTYPE
  5
16
330
5
100
AcDbSymbolTableRecord
100
AcDbLinetypeTableRecord
  2
Continuous
 70
    0
  3
Solid line
 72
   65
 73
    0
 40
0
  0
LTYPE
  5
32
330
5
100
AcDbSymbolTableRecord
100
AcDbLinetypeTableRecord
  2
DOT
 70
    0
  3
Dot . . . . . . . . . . . . . . . . . . . . . .
 72
   65
 73
    2
 40
6.35
 49
0
 74
    0
 49
-6.35
 74
    0
  0
LTYPE
  5
33
330
5
100
AcDbSymbolTableRecord
100
AcDbLinetypeTableRecord
  2
DOTTINY
 70
    0
  3
Dot (.15x) .....................................
 72
   65
 73
    2
 40
0.9525
 49
0
 74
    0
 49
-0.9525
 74
    0
  0
LTYPE
  5
34
330
5
100
AcDbSymbolTableRecord
100
AcDbLinetypeTableRecord
  2
DOT2
 70
    0
  3
Dot (.5x) .....................................
 72
   65
 73
    2
 40
3.175
 49
0
 74
    0
 49
-3.175
 74
    0
  0
LTYPE
  5
35
330
5
100
AcDbSymbolTableRecord
100
AcDbLinetypeTableRecord
  2
DOTX2
 70
    0
  3
Dot (2x) .  .  .  .  .  .  .  .  .  .  .  .  .
 72
   65
 73
    2
 40
12.7
 49
0
 74
    0
 49
-12.7
 74
    0
  0
LTYPE
  5
36
330
5
100
AcDbSymbolTableRecord
100
AcDbLinetypeTableRecord
  2
DASHED
 70
    0
  3
Dashed _ _ _ _ _ _ _ _ _ _ _ _ _ _ _ _ _
 72
   65
 73
    2
 40
19.05
 49
12.7
 74
    0
 49
-6.35
 74
    0
  0
LTYPE
  5
37
330
5
100
AcDbSymbolTableRecord
100
AcDbLinetypeTableRecord
  2
DASHEDTINY
 70
    0
  3
Dashed (.15x) _ _ _ _ _ _ _ _ _ _ _ _ _ _ _ _ _
 72
   65
 73
    2
 40
2.8575
 49
1.905
 74
    0
 49
-0.9525
 74
    0
  0
LTYPE
  5
38
330
5
100
AcDbSymbolTableRecord
100
AcDbLinetypeTableRecord
  2
DASHED2
 70
    0
  3
Dashed (.5x) _ _ _ _ _ _ _ _ _ _ _ _ _ _ _ _ _
 72
   65
 73
    2
 40
9.524999999999999
 49
6.35
 74
    0
 49
-3.175
 74
    0
  0
LTYPE
  5
39
330
5
100
AcDbSymbolTableRecord
100
AcDbLinetypeTableRecord
  2
DASHEDX2
 70
    0
  3
Dashed (2x) ____  ____  ____  ____  ____  ___
 72
   65
 73
    2
 40
38.09999999999999
 49
25.4
 74
    0
 49
-12.7
 74
    0
  0
LTYPE
  5
3A
330
5
100
AcDbSymbolTableRecord
100
AcDbLinetypeTableRecord
  2
DASHDOT
 70
    0
  3
Dash dot __ . __ . __ . __ . __ . __ . __ . __
 72
   65
 73
    4
 40
25.4
 49
12.7
 74
    0
 49
-6.35
 74
    0
 49
0
 74
    0
 49
-6.35
 74
    0
  0
LTYPE
  5
3B
330
5
100
AcDbSymbolTableRecord
100
AcDbLinetypeTableRecord
  2
DASHDOTTINY
 70
    0
  3
Dash dot (.15x) _._._._._._._._._._._._._._._.
 72
   65
 73
    4
 40
3.81
 49
1.905
 74
    0
 49
-0.9525
 74
    0
 49
0
 74
    0
 49
-0.9525
 74
    0
  0
LTYPE
  5
3C
330
5
100
AcDbSymbolTableRecord
100
AcDbLinetypeTableRecord
  2
DASHDOT2
 70
    0
  3
Dash dot (.5x) _._._._._._._._._._._._._._._.
 72
   65
 73
    4
 40
12.7
 49
6.35
 74
    0
 49
-3.175
 74
    0
 49
0
 74
    0
 49
-3.175
 74
    0
  0
LTYPE
  5
3D
330
5
100
AcDbSymbolTableRecord
100
AcDbLinetypeTableRecord
  2
DASHDOTX2
 70
    0
  3
Dash dot (2x) ____  .  ____  .  ____  .  ___
 72
   65
 73
    4
 40
50.8
 49
25.4
 74
    0
 49
-12.7
 74
    0
 49
0
 74
    0
 49
-12.7
 74
    0
  0
LTYPE
  5
3E
330
5
100
AcDbSymbolTableRecord
100
AcDbLinetypeTableRecord
  2
DIVIDE
 70
    0
  3
Divide ____ . . ____ . . ____ . . ____ . . ____
 72
   65
 73
    6
 40
31.75
 49
12.7
 74
    0
 49
-6.35
 74
    0
 49
0
 74
    0
 49
-6.35
 74
    0
 49
0
 74
    0
 49
-6.35
 74
    0
  0
LTYPE
  5
3F
330
5
100
AcDbSymbolTableRecord
100
AcDbLinetypeTableRecord
  2
DIVIDETINY
 70
    0
  3
Divide (.15x) __..__..__..__..__..__..__..__.._
 72
   65
 73
    6
 40
4.7625
 49
1.905
 74
    0
 49
-0.9525
 74
    0
 49
0
 74
    0
 49
-0.9525
 74
    0
 49
0
 74
    0
 49
-0.9525
 74
    0
  0
LTYPE
  5
40
330
5
100
AcDbSymbolTableRecord
100
AcDbLinetypeTableRecord
  2
DIVIDE2
 70
    0
  3
Divide (.5x) __..__..__..__..__..__..__..__.._
 72
   65
 73
    6
 40
15.875
 49
6.35
 74
    0
 49
-3.175
 74
    0
 49
0
 74
    0
 49
-3.175
 74
    0
 49
0
 74
    0
 49
-3.175
 74
    0
  0
LTYPE
  5
41
330
5
100
AcDbSymbolTableRecord
100
AcDbLinetypeTableRecord
  2
DIVIDEX2
 70
    0
  3
Divide (2x) ________  .  .  ________  .  .  _
 72
   65
 73
    6
 40
63.5
 49
25.4
 74
    0
 49
-12.7
 74
    0
 49
0
 74
    0
 49
-12.7
 74
    0
 49
0
 74
    0
 49
-12.7
 74
    0
  0
LTYPE
  5
42
330
5
100
AcDbSymbolTableRecord
100
AcDbLinetypeTableRecord
  2
BORDER
 70
    0
  3
Border __ __ . __ __ . __ __ . __ __ . __ __ .
 72
   65
 73
    6
 40
44.45
 49
12.7
 74
    0
 49
-6.35
 74
    0
 49
12.7
 74
    0
 49
-6.35
 74
    0
 49
0
 74
    0
 49
-6.35
 74
    0
  0
LTYPE
  5
43
330
5
100
AcDbSymbolTableRecord
100
AcDbLinetypeTableRecord
  2
BORDERTINY
 70
    0
  3
Border (.15x) __.__.__.__.__.__.__.__.__.__.__.
 72
   65
 73
    6
 40
6.6675
 49
1.905
 74
    0
 49
-0.9525
 74
    0
 49
1.905
 74
    0
 49
-0.9525
 74
    0
 49
0
 74
    0
 49
-0.9525
 74
    0
  0
LTYPE
  5
44
330
5
100
AcDbSymbolTableRecord
100
AcDbLinetypeTableRecord
  2
BORDER2
 70
    0
  3
Border (.5x) __.__.__.__.__.__.__.__.__.__.__.
 72
   65
 73
    6
 40
22.225
 49
6.35
 74
    0
 49
-3.175
 74
    0
 49
6.35
 74
    0
 49
-3.175
 74
    0
 49
0
 74
    0
 49
-3.175
 74
    0
  0
LTYPE
  5
45
330
5
100
AcDbSymbolTableRecord
100
AcDbLinetypeTableRecord
  2
BORDERX2
 70
    0
  3
Border (2x) ____  ____  .  ____  ____  .  ___
 72
   65
 73
    6
 40
88.89999999999999
 49
25.4
 74
    0
 49
-12.7
 74
    0
 49
25.4
 74
    0
 49
-12.7
 74
    0
 49
0
 74
    0
 49
-12.7
 74
    0
  0
LTYPE
  5
46
330
5
100
AcDbSymbolTableRecord
100
AcDbLinetypeTableRecord
  2
CENTER
 70
    0
  3
Center ____ _ ____ _ ____ _ ____ _ ____ _ ____
 72
   65
 73
    4
 40
50.8
 49
31.75
 74
    0
 49
-6.35
 74
    0
 49
6.35
 74
    0
 49
-6.35
 74
    0
  0
LTYPE
  5
47
330
5
100
AcDbSymbolTableRecord
100
AcDbLinetypeTableRecord
  2
CENTERTINY
 70
    0
  3
Center (.15x) ___ _ ___ _ ___ _ ___ _ ___ _ ___
 72
   65
 73
    4
 40
7.62
 49
4.7625
 74
    0
 49
-0.9525
 74
    0
 49
0.9525
 74
    0
 49
-0.9525
 74
    0
  0
LTYPE
  5
48
330
5
100
AcDbSymbolTableRecord
100
AcDbLinetypeTableRecord
  2
CENTER2
 70
    0
  3
Center (.5x) ___ _ ___ _ ___ _ ___ _ ___ _ ___
 72
   65
 73
    4
 40
28.575
 49
19.05
 74
    0
 49
-3.175
 74
    0
 49
3.175
 74
    0
 49
-3.175
 74
    0
  0
LTYPE
  5
49
330
5
100
AcDbSymbolTableRecord
100
AcDbLinetypeTableRecord
  2
CENTERX2
 70
    0
  3
Center (2x) ________  __  ________  __  _____
 72
   65
 73
    4
 40
101.6
 49
63.5
 74
    0
 49
-12.7
 74
    0
 49
12.7
 74
    0
 49
-12.7
 74
    0
  0
ENDTAB
  0
TABLE
  2
LAYER
  5
2
330
0
100
AcDbSymbolTable
 70
    1
  0
LAYER
  5
10
330
2
100
AcDbSymbolTableRecord
100
AcDbLayerTableRecord
  2
0
 70
    0
 62
    7
  6
CONTINUOUS
370
   -3
390
F
  0
ENDTAB
  0
TABLE
  2
STYLE
  5
3
330
0
100
AcDbSymbolTable
 70
    3
  0
STYLE
  5
4A
330
2
100
AcDbSymbolTableRecord
100
AcDbTextStyleTableRecord
  2
Standard
 70
    0
 40
0
 41
1
 50
0
 71
    0
 42
1
  3
txt
  4

  0
ENDTAB
  0
TABLE
  2
VIEW
  5
6
330
0
100
AcDbSymbolTable
 70
    0
  0
ENDTAB
  0
TABLE
  2
UCS
  5
7
330
0
100
AcDbSymbolTable
 70
    0
  0
ENDTAB
  0
TABLE
  2
APPID
  5
9
330
0
100
AcDbSymbolTable
 70
    1
  0
APPID
  5
12
330
9
100
AcDbSymbolTableRecord
100
AcDbRegAppTableRecord
  2
ACAD
 70
    0
  0
APPID
  5
4B
330
9
100
AcDbSymbolTableRecord
100
AcDbRegAppTableRecord
  2
LibreCad
 70
    0
  0
ENDTAB
  0
TABLE
  2
DIMSTYLE
  5
A
330
0
100
AcDbSymbolTable
 70
    1
100
AcDbDimStyleTable
 71
    1
  0
DIMSTYLE
105
4C
330
A
100
AcDbSymbolTableRecord
100
AcDbDimStyleTableRecord
  2
Standard
 70
    0
 40
1
 41
2.5
 42
0.625
 43
0.38
 44
1.25
 45
0
 46
0
 47
0
 48
0
 49
1
140
2.5
141
0.09
142
2.5
143
25.4
144
1
145
0
146
1
147
0.625
148
0
 71
    0
 72
    0
 73
    0
 74
    1
 75
    0
 76
    0
 77
    0
 78
    1
 79
    0
170
    0
171
    2
172
    0
173
    0
174
    0
175
    0
176
    0
177
    0
178
    0
179
    0
271
    2
272
    4
273
    2
274
    2
275
    0
276
    0
277
    2
278
    0
279
    0
280
    0
281
    0
282
    0
283
    1
284
    0
285
    0
286
    0
288
    0
289
    3
340
standard
341

371
   -2
372
   -2
  0
ENDTAB
  0
TABLE
  2
BLOCK_RECORD
  5
1
330
0
100
AcDbSymbolTable
 70
    2
  0
BLOCK_RECORD
  5
1F
330
1
100
AcDbSymbolTableRecord
100
AcDbBlockTableRecord
  2
*Model_Space
 70
    0
280
    1
281
    0
  0
BLOCK_RECORD
  5
1E
330
1
100
AcDbSymbolTableRecord
100
AcDbBlockTableRecord
  2
*Paper_Space
 70
    0
280
    1
281
    0
  0
BLOCK_RECORD
  5
4D
330
1
100
AcDbSymbolTableRecord
100
AcDbBlockTableRecord
  2
circle
 70
    0
280
    1
281
    0
  0
BLOCK_RECORD
  5
50
330
1
100
AcDbSymbolTableRecord
100
AcDbBlockTableRecord
  2
topbox
 70
    0
280
    1
281
    0
  0
BLOCK_RECORD
  5
53
330
1
100
AcDbSymbolTableRecord
100
AcDbBlockTableRecord
  2
backbox
 70
    0
280
    1
281
    0
  0
BLOCK_RECORD
  5
56
330
1
100
AcDbSymbolTableRecord
100
AcDbBlockTableRecord
  2
backbox-0
 70
    0
280
    1
281
    0
  0
BLOCK_RECORD
  5
59
330
1
100
AcDbSymbolTableRecord
100
AcDbBlockTableRecord
  2
bottombox
 70
    0
280
    1
281
    0
  0
BLOCK_RECORD
  5
5C
330
1
100
AcDbSymbolTableRecord
100
AcDbBlockTableRecord
  2
sidebox
 70
    0
280
    1
281
    0
  0
BLOCK_RECORD
  5
5F
330
1
100
AcDbSymbolTableRecord
100
AcDbBlockTableRecord
  2
sidebox-0
 70
    0
280
    1
281
    0
  0
BLOCK_RECORD
  5
62
330
1
100
AcDbSymbolTableRecord
100
AcDbBlockTableRecord
  2
sidebox-1
 70
    0
280
    1
281
    0
  0
BLOCK_RECORD
  5
65
330
1
100
AcDbSymbolTableRecord
100
AcDbBlockTableRecord
  2
backbox-1
 70
    0
280
    1
281
    0
  0
BLOCK_RECORD
  5
68
330
1
100
AcDbSymbolTableRecord
100
AcDbBlockTableRecord
  2
back_DXF
 70
    0
280
    1
281
    0
  0
BLOCK_RECORD
  5
6B
330
1
100
AcDbSymbolTableRecord
100
AcDbBlockTableRecord
  2
front_DXF
 70
    0
280
    1
281
    0
  0
BLOCK_RECORD
  5
6E
330
1
100
AcDbSymbolTableRecord
100
AcDbBlockTableRecord
  2
top_DXF
 70
    0
280
    1
281
    0
  0
BLOCK_RECORD
  5
71
330
1
100
AcDbSymbolTableRecord
100
AcDbBlockTableRecord
  2
side_DXF
 70
    0
280
    1
281
    0
  0
BLOCK_RECORD
  5
74
330
1
100
AcDbSymbolTableRecord
100
AcDbBlockTableRecord
  2
side_DXF-0
 70
    0
280
    1
281
    0
  0
BLOCK_RECORD
  5
77
330
1
100
AcDbSymbolTableRecord
100
AcDbBlockTableRecord
  2
layout
 70
    0
280
    1
281
    0
  0
BLOCK_RECORD
  5
7A
330
1
100
AcDbSymbolTableRecord
100
AcDbBlockTableRecord
  2
topbox-0
 70
    0
280
    1
281
    0
  0
BLOCK_RECORD
  5
7D
330
1
100
AcDbSymbolTableRecord
100
AcDbBlockTableRecord
  2
backbox-2
 70
    0
280
    1
281
    0
  0
BLOCK_RECORD
  5
80
330
1
100
AcDbSymbolTableRecord
100
AcDbBlockTableRecord
  2
bottombox-0
 70
    0
280
    1
281
    0
  0
BLOCK_RECORD
  5
83
330
1
100
AcDbSymbolTableRecord
100
AcDbBlockTableRecord
  2
sidebox-2
 70
    0
280
    1
281
    0
  0
BLOCK_RECORD
  5
86
330
1
100
AcDbSymbolTableRecord
100
AcDbBlockTableRecord
  2
back_DXF-0
 70
    0
280
    1
281
    0
  0
BLOCK_RECORD
  5
89
330
1
100
AcDbSymbolTableRecord
100
AcDbBlockTableRecord
  2
front_DXF-0
 70
    0
280
    1
281
    0
  0
BLOCK_RECORD
  5
8C
330
1
100
AcDbSymbolTableRecord
100
AcDbBlockTableRecord
  2
top_DXF-0
 70
    0
280
    1
281
    0
  0
BLOCK_RECORD
  5
8F
330
1
100
AcDbSymbolTableRecord
100
AcDbBlockTableRecord
  2
side_DXF-1
 70
    0
280
    1
281
    0
  0
BLOCK_RECORD
  5
92
330
1
100
AcDbSymbolTableRecord
100
AcDbBlockTableRecord
  2
layout-0
 70
    0
280
    1
281
    0
  0
BLOCK_RECORD
  5
95
330
1
100
AcDbSymbolTableRecord
100
AcDbBlockTableRecord
  2
sidebox-3
 70
    0
280
    1
281
    0
  0
BLOCK_RECORD
  5
98
330
1
100
AcDbSymbolTableRecord
100
AcDbBlockTableRecord
  2
bottombox-1
 70
    0
280
    1
281
    0
  0
BLOCK_RECORD
  5
9B
330
1
100
AcDbSymbolTableRecord
100
AcDbBlockTableRecord
  2
front_DXF-1
 70
    0
280
    1
281
    0
  0
BLOCK_RECORD
  5
9E
330
1
100
AcDbSymbolTableRecord
100
AcDbBlockTableRecord
  2
side_DXF-2
 70
    0
280
    1
281
    0
  0
BLOCK_RECORD
  5
A1
330
1
100
AcDbSymbolTableRecord
100
AcDbBlockTableRecord
  2
topbox-1
 70
    0
280
    1
281
    0
  0
BLOCK_RECORD
  5
A4
330
1
100
AcDbSymbolTableRecord
100
AcDbBlockTableRecord
  2
backbox-3
 70
    0
280
    1
281
    0
  0
BLOCK_RECORD
  5
A7
330
1
100
AcDbSymbolTableRecord
100
AcDbBlockTableRecord
  2
sidebox-4
 70
    0
280
    1
281
    0
  0
BLOCK_RECORD
  5
AA
330
1
100
AcDbSymbolTableRecord
100
AcDbBlockTableRecord
  2
back_DXF-1
 70
    0
280
    1
281
    0
  0
BLOCK_RECORD
  5
AD
330
1
100
AcDbSymbolTableRecord
100
AcDbBlockTableRecord
  2
top_DXF-1
 70
    0
280
    1
281
    0
  0
BLOCK_RECORD
  5
B0
330
1
100
AcDbSymbolTableRecord
100
AcDbBlockTableRecord
  2
layout-1
 70
    0
280
    1
281
    0
  0
BLOCK_RECORD
  5
B3
330
1
100
AcDbSymbolTableRecord
100
AcDbBlockTableRecord
  2
box_layout
 70
    0
280
    1
281
    0
  0
ENDTAB
  0
ENDSEC
  0
SECTION
  2
BLOCKS
  0
BLOCK
  5
20
330
1F
100
AcDbEntity
  8
0
100
AcDbBlockBegin
  2
*Model_Space
 70
    0
 10
0
 20
0
 30
0
  3
*Model_Space
  1

  0
ENDBLK
  5
21
330
1F
100
AcDbEntity
  8
0
100
AcDbBlockEnd
  0
BLOCK
  5
1C
330
1B
100
AcDbEntity
  8
0
100
AcDbBlockBegin
  2
*Paper_Space
 70
    0
 10
0
 20
0
 30
0
  3
*Paper_Space
  1

  0
ENDBLK
  5
1D
330
1F
100
AcDbEntity
  8
0
100
AcDbBlockEnd
  0
BLOCK
  5
4E
330
4D
100
AcDbEntity
  8
0
100
AcDbBlockBegin
  2
circle
 70
    0
 10
0
 20
0
  3
circle
  1

  0
CIRCLE
  5
B6
100
AcDbEntity
  8
0
  6
ByLayer
 62
  256
370
   -1
100
AcDbCircle
 10
-51.49999999999999
 20
-95
 40
20.6
  0
CIRCLE
  5
B7
100
AcDbEntity
  8
0
  6
ByLayer
 62
  256
370
   -1
100
AcDbCircle
 10
-51.49999999999999
 20
-95
 40
24.6
  0
ENDBLK
  5
4F
330
4D
100
AcDbEntity
  8
0
100
AcDbBlockEnd
  0
BLOCK
  5
51
330
50
100
AcDbEntity
  8
0
100
AcDbBlockBegin
  2
topbox
 70
    0
 10
0
 20
0
  3
topbox
  1

  0
LWPOLYLINE
  5
B8
100
AcDbEntity
  8
0
  6
ByLayer
 62
  256
370
   -1
100
AcDbPolyline
 90
    4
 70
    1
 43
0
 10
-77.75
 20
-29
 10
-77.75
 20
-26.6
 10
-87.25
 20
-26.6
 10
-87.25
 20
-29
  0
LWPOLYLINE
  5
B9
100
AcDbEntity
  8
0
  6
ByLayer
 62
  256
370
   -1
100
AcDbPolyline
 90
    6
 70
    1
 43
0
 10
-55
 20
-15
 10
-62.85714285714285
 20
-15
 10
-62.85714285714285
 20
-18
 10
-58
 20
-18
 10
-58
 20
-21.66666666666666
 10
-55
 20
-21.66666666666666
  0
LWPOLYLINE
  5
BA
100
AcDbEntity
  8
0
  6
ByLayer
 62
  256
370
   -1
100
AcDbPolyline
 90
    4
 70
    1
 43
0
 10
-70.71428571428571
 20
-18
 10
-70.71428571428571
 20
-15
 10
-78.57142857142858
 20
-15
 10
-78.57142857142858
 20
-18
  0
LWPOLYLINE
  5
BB
100
AcDbEntity
  8
0
  6
ByLayer
 62
  256
370
   -1
100
AcDbPolyline
 90
    4
 70
    1
 43
0
 10
-86.42857142857142
 20
-18
 10
-86.42857142857142
 20
-15
 10
-94.28571428571429
 20
-15
 10
-94.28571428571429
 20
-18
  0
LWPOLYLINE
  5
BC
100
AcDbEntity
  8
0
  6
ByLayer
 62
  256
370
   -1
100
AcDbPolyline
 90
    6
 70
    1
 43
0
 10
-102.1428571428572
 20
-18
 10
-102.1428571428572
 20
-15
 10
-110
 20
-15
 10
-110
 20
-21.66666666666666
 10
-107
 20
-21.66666666666666
 10
-107
 20
-18
  0
LWPOLYLINE
  5
BD
100
AcDbEntity
  8
0
  6
ByLayer
 62
  256
370
   -1
100
AcDbPolyline
 90
   60
 70
    1
 43
0
 10
-3.000000000000007
 20
-102.8571428571143
 10
-3.000000000000007
 20
-117
 10
-13.88888888888889
 20
-117
 10
-13.88888888888889
 20
-120
 10
-27.77777777777778
 20
-120
 10
-27.77777777777778
 20
-117
 10
-41.66666666665556
 20
-117
 10
-41.66666666665556
 20
-120
 10
-55.55555555554445
 20
-120
 10
-55.55555555554445
 20
-117
 10
-69.44444444442223
 20
-117
 10
-69.44444444442223
 20
-120
 10
-83.33333333331112
 20
-120
 10
-83.33333333331112
 20
-117
 10
-97.2222222221889
 20
-117
 10
-97.2222222221889
 20
-120
 10
-111.1111111110778
 20
-120
 10
-111.1111111110778
 20
-117
 10
-122
 20
-117
 10
-122
 20
-102.8571428571143
 10
-125
 20
-102.8571428571143
 10
-125
 20
-85.71428571425714
 10
-122
 20
-85.71428571425714
 10
-122
 20
-68.57142857141429
 10
-125
 20
-68.57142857141429
 10
-125
 20
-51.42857142855715
 10
-122
 20
-51.42857142855715
 10
-122
 20
-34.28571428571428
 10
-125
 20
-34.28571428571428
 10
-125
 20
-17.14285714285714
 10
-122
 20
-17.14285714285714
 10
-122
 20
-3.000000000000007
 10
-111.1111111110778
 20
-3
 10
-111.1111111110778
 20
0
 10
-97.2222222221889
 20
0
 10
-97.2222222221889
 20
-3
 10
-83.33333333331112
 20
-3
 10
-83.33333333331112
 20
0
 10
-69.44444444442223
 20
0
 10
-69.44444444442223
 20
-3
 10
-55.55555555554445
 20
-3
 10
-55.55555555554445
 20
0
 10
-41.66666666665556
 20
0
 10
-41.66666666665556
 20
-3
 10
-27.77777777777778
 20
-3
 10
-27.77777777777778
 20
0
 10
-13.88888888888889
 20
0
 10
-13.88888888888889
 20
-3
 10
-3.000000000000007
 20
-3.000000000000007
 10
-3.000000000000007
 20
-17.14285714285714
 10
0
 20
-17.14285714285714
 10
0
 20
-34.28571428571428
 10
-3.000000000000007
 20
-34.28571428571428
 10
-3.000000000000007
 20
-51.42857142855715
 10
0
 20
-51.42857142855715
 10
0
 20
-68.57142857141429
 10
-3.000000000000007
 20
-68.57142857141429
 10
-3.000000000000007
 20
-85.71428571425714
 10
0
 20
-85.71428571425714
 10
0
 20
-102.8571428571143
  0
CIRCLE
  5
BE
100
AcDbEntity
  8
0
  6
ByLayer
 62
  256
370
   -1
100
AcDbCircle
 10
-51.49999999999999
 20
-85
 40
24.9
  0
CIRCLE
  5
BF
100
AcDbEntity
  8
0
  6
ByLayer
 62
  256
370
   -1
100
AcDbCircle
 10
-91.5
 20
-85
 40
4.599999999999991
  0
CIRCLE
  5
C0
100
AcDbEntity
  8
0
  6
ByLayer
 62
  256
370
   -1
100
AcDbCircle
 10
-100
 20
-102.5
 40
2.100000000000009
  0
CIRCLE
  5
C1
100
AcDbEntity
  8
0
  6
ByLayer
 62
  256
370
   -1
100
AcDbCircle
 10
-100
 20
-67.50000000000001
 40
2.100000000000009
  0
LWPOLYLINE
  5
C2
100
AcDbEntity
  8
0
  6
ByLayer
 62
  256
370
   -1
100
AcDbPolyline
 90
    6
 70
    1
 43
0
 10
-102.1428571428572
 20
-35
 10
-102.1428571428572
 20
-32
 10
-107
 20
-32
 10
-107
 20
-28.33333333333333
 10
-110
 20
-28.33333333333333
 10
-110
 20
-35
  0
LWPOLYLINE
  5
C3
100
AcDbEntity
  8
0
  6
ByLayer
 62
  256
370
   -1
100
AcDbPolyline
 90
    6
 70
    1
 43
0
 10
-55
 20
-28.33333333333333
 10
-58
 20
-28.33333333333333
 10
-58
 20
-32
 10
-62.85714285714285
 20
-32
 10
-62.85714285714285
 20
-35
 10
-55
 20
-35
  0
LWPOLYLINE
  5
C4
100
AcDbEntity
  8
0
  6
ByLayer
 62
  256
370
   -1
100
AcDbPolyline
 90
    4
 70
    1
 43
0
 10
-70.71428571428571
 20
-32
 10
-78.57142857142858
 20
-32
 10
-78.57142857142858
 20
-35
 10
-70.71428571428571
 20
-35
  0
LWPOLYLINE
  5
C5
100
AcDbEntity
  8
0
  6
ByLayer
 62
  256
370
   -1
100
AcDbPolyline
 90
    4
 70
    1
 43
0
 10
-86.42857142857142
 20
-32
 10
-94.28571428571429
 20
-32
 10
-94.28571428571429
 20
-35
 10
-86.42857142857142
 20
-35
  0
ENDBLK
  5
52
330
50
100
AcDbEntity
  8
0
100
AcDbBlockEnd
  0
BLOCK
  5
54
330
53
100
AcDbEntity
  8
0
100
AcDbBlockBegin
  2
backbox
 70
    0
 10
0
 20
0
  3
backbox
  1

  0
LWPOLYLINE
  5
C6
100
AcDbEntity
  8
0
  6
ByLayer
 62
  256
370
   -1
100
AcDbPolyline
 90
   52
 70
    1
 43
0
 10
102.8571428571143
 20
32
 10
102.8571428571143
 20
35
 10
117
 20
35
 10
117
 20
30
 10
120
 20
30
 10
120
 20
25
 10
117
 20
25
 10
117
 20
20
 10
120
 20
20
 10
120
 20
15
 10
117
 20
15
 10
117
 20
10
 10
120
 20
10
 10
120
 20
5
 10
117
 20
5
 10
117
 20
0
 10
102.8571428571428
 20
0
 10
102.8571428571428
 20
3
 10
85.71428571428571
 20
3
 10
85.71428571428571
 20
0
 10
68.57142857142857
 20
0
 10
68.57142857142857
 20
3
 10
51.42857142857143
 20
3
 10
51.42857142857143
 20
0
 10
34.28571428571428
 20
0
 10
34.28571428571428
 20
3
 10
17.14285714285714
 20
3
 10
17.14285714285714
 20
0
 10
3
 20
0
 10
3
 20
5
 10
0
 20
5
 10
0
 20
10
 10
3
 20
10
 10
3
 20
15
 10
0
 20
15
 10
0
 20
20
 10
3
 20
20
 10
3
 20
25
 10
0
 20
25
 10
0
 20
30
 10
3
 20
30
 10
3
 20
35
 10
17.14285714285714
 20
35
 10
17.14285714285714
 20
32
 10
34.28571428571428
 20
32
 10
34.28571428571428
 20
35
 10
51.42857142855715
 20
35
 10
51.42857142855715
 20
32
 10
68.57142857141429
 20
32
 10
68.57142857141429
 20
35
 10
85.71428571425714
 20
35
 10
85.71428571425714
 20
32
  0
ENDBLK
  5
55
330
53
100
AcDbEntity
  8
0
100
AcDbBlockEnd
  0
BLOCK
  5
57
330
56
100
AcDbEntity
  8
0
100
AcDbBlockBegin
  2
backbox-0
 70
    0
 10
0
 20
0
  3
backbox-0
  1

  0
LWPOLYLINE
  5
C7
100
AcDbEntity
  8
0
  6
ByLayer
 62
  256
370
   -1
100
AcDbPolyline
 90
   52
 70
    1
 43
0
 10
102.8571428571143
 20
32
 10
102.8571428571143
 20
35
 10
117
 20
35
 10
117
 20
30
 10
120
 20
30
 10
120
 20
25
 10
117
 20
25
 10
117
 20
20
 10
120
 20
20
 10
120
 20
15
 10
117
 20
15
 10
117
 20
10
 10
120
 20
10
 10
120
 20
5
 10
117
 20
5
 10
117
 20
0
 10
102.8571428571428
 20
0
 10
102.8571428571428
 20
3
 10
85.71428571428571
 20
3
 10
85.71428571428571
 20
0
 10
68.57142857142857
 20
0
 10
68.57142857142857
 20
3
 10
51.42857142857143
 20
3
 10
51.42857142857143
 20
0
 10
34.28571428571428
 20
0
 10
34.28571428571428
 20
3
 10
17.14285714285714
 20
3
 10
17.14285714285714
 20
0
 10
3
 20
0
 10
3
 20
5
 10
0
 20
5
 10
0
 20
10
 10
3
 20
10
 10
3
 20
15
 10
0
 20
15
 10
0
 20
20
 10
3
 20
20
 10
3
 20
25
 10
0
 20
25
 10
0
 20
30
 10
3
 20
30
 10
3
 20
35
 10
17.14285714285714
 20
35
 10
17.14285714285714
 20
32
 10
34.28571428571428
 20
32
 10
34.28571428571428
 20
35
 10
51.42857142855715
 20
35
 10
51.42857142855715
 20
32
 10
68.57142857141429
 20
32
 10
68.57142857141429
 20
35
 10
85.71428571425714
 20
35
 10
85.71428571425714
 20
32
  0
ENDBLK
  5
58
330
56
100
AcDbEntity
  8
0
100
AcDbBlockEnd
  0
BLOCK
  5
5A
330
59
100
AcDbEntity
  8
0
100
AcDbBlockBegin
  2
bottombox
 70
    0
 10
0
 20
0
  3
bottombox
  1

  0
LWPOLYLINE
  5
C8
100
AcDbEntity
  8
0
  6
ByLayer
 62
  256
370
   -1
100
AcDbPolyline
 90
   60
 70
    1
 43
0
 10
13.88888888888889
 20
-117
 10
3.000000000000007
 20
-117
 10
3.000000000000007
 20
-102.8571428571428
 10
0
 20
-102.8571428571428
 10
0
 20
-85.71428571428571
 10
3.000000000000007
 20
-85.71428571428571
 10
3.000000000000007
 20
-68.57142857142857
 10
0
 20
-68.57142857142857
 10
0
 20
-51.42857142857143
 10
3.000000000000007
 20
-51.42857142857143
 10
3.000000000000007
 20
-34.28571428571428
 10
0
 20
-34.28571428571428
 10
0
 20
-17.14285714285714
 10
3.000000000000007
 20
-17.14285714285714
 10
3.000000000000007
 20
-3
 10
13.88888888888889
 20
-3
 10
13.88888888888889
 20
0
 10
27.77777777777778
 20
0
 10
27.77777777777778
 20
-3
 10
41.66666666666667
 20
-3
 10
41.66666666666667
 20
0
 10
55.55555555555556
 20
0
 10
55.55555555555556
 20
-3
 10
69.44444444444444
 20
-3
 10
69.44444444444444
 20
0
 10
83.33333333333334
 20
0
 10
83.33333333333334
 20
-3
 10
97.22222222222223
 20
-3
 10
97.22222222222223
 20
0
 10
111.1111111111111
 20
0
 10
111.1111111111111
 20
-3
 10
122
 20
-3
 10
122
 20
-17.14285714285714
 10
125
 20
-17.14285714285714
 10
125
 20
-34.28571428571428
 10
122
 20
-34.28571428571428
 10
122
 20
-51.42857142857143
 10
125
 20
-51.42857142857143
 10
125
 20
-68.57142857142857
 10
122
 20
-68.57142857142857
 10
122
 20
-85.71428571428571
 10
125
 20
-85.71428571428571
 10
125
 20
-102.8571428571428
 10
122
 20
-102.8571428571428
 10
122
 20
-117
 10
111.1111111111111
 20
-117
 10
111.1111111111111
 20
-120
 10
97.22222222222223
 20
-120
 10
97.22222222222223
 20
-117
 10
83.33333333333334
 20
-117
 10
83.33333333333334
 20
-120
 10
69.44444444444444
 20
-120
 10
69.44444444444444
 20
-117
 10
55.55555555555556
 20
-117
 10
55.55555555555556
 20
-120
 10
41.66666666666667
 20
-120
 10
41.66666666666667
 20
-117
 10
27.77777777777778
 20
-117
 10
27.77777777777778
 20
-120
 10
13.88888888888889
 20
-120
  0
ENDBLK
  5
5B
330
59
100
AcDbEntity
  8
0
100
AcDbBlockEnd
  0
BLOCK
  5
5D
330
5C
100
AcDbEntity
  8
0
100
AcDbBlockBegin
  2
sidebox
 70
    0
 10
0
 20
0
  3
sidebox
  1

  0
LWPOLYLINE
  5
C9
100
AcDbEntity
  8
0
  6
ByLayer
 62
  256
370
   -1
100
AcDbPolyline
 90
   60
 70
    1
 43
0
 10
111.1111111110778
 20
32
 10
111.1111111110778
 20
35
 10
125
 20
35
 10
125
 20
30
 10
122
 20
30
 10
122
 20
25
 10
125
 20
25
 10
125
 20
20
 10
122
 20
20
 10
122
 20
15
 10
125
 20
15
 10
125
 20
10
 10
122
 20
10
 10
122
 20
5
 10
125
 20
5
 10
125
 20
0
 10
111.1111111111111
 20
0
 10
111.1111111111111
 20
3
 10
97.22222222222223
 20
3
 10
97.22222222222223
 20
0
 10
83.33333333333334
 20
0
 10
83.33333333333334
 20
3
 10
69.44444444444444
 20
3
 10
69.44444444444444
 20
0
 10
55.55555555555556
 20
0
 10
55.55555555555556
 20
3
 10
41.66666666666667
 20
3
 10
41.66666666666667
 20
0
 10
27.77777777777778
 20
0
 10
27.77777777777778
 20
3
 10
13.88888888888889
 20
3
 10
13.88888888888889
 20
0
 10
0
 20
0
 10
0
 20
5
 10
3.000000000000007
 20
5
 10
3.000000000000007
 20
10
 10
0
 20
10
 10
0
 20
15
 10
3.000000000000007
 20
15
 10
3.000000000000007
 20
20
 10
0
 20
20
 10
0
 20
25
 10
3.000000000000007
 20
25
 10
3.000000000000007
 20
30
 10
0
 20
30
 10
0
 20
35
 10
13.88888888888889
 20
35
 10
13.88888888888889
 20
32
 10
27.77777777777778
 20
32
 10
27.77777777777778
 20
35
 10
41.66666666665556
 20
35
 10
41.66666666665556
 20
32
 10
55.55555555554445
 20
32
 10
55.55555555554445
 20
35
 10
69.44444444442223
 20
35
 10
69.44444444442223
 20
32
 10
83.33333333331112
 20
32
 10
83.33333333331112
 20
35
 10
97.2222222221889
 20
35
 10
97.2222222221889
 20
32
  0
ENDBLK
  5
5E
330
5C
100
AcDbEntity
  8
0
100
AcDbBlockEnd
  0
BLOCK
  5
60
330
5F
100
AcDbEntity
  8
0
100
AcDbBlockBegin
  2
sidebox-0
 70
    0
 10
0
 20
0
  3
sidebox-0
  1

  0
LWPOLYLINE
  5
CA
100
AcDbEntity
  8
0
  6
ByLayer
 62
  256
370
   -1
100
AcDbPolyline
 90
   60
 70
    1
 43
0
 10
111.1111111110778
 20
32
 10
111.1111111110778
 20
35
 10
125
 20
35
 10
125
 20
30
 10
122
 20
30
 10
122
 20
25
 10
125
 20
25
 10
125
 20
20
 10
122
 20
20
 10
122
 20
15
 10
125
 20
15
 10
125
 20
10
 10
122
 20
10
 10
122
 20
5
 10
125
 20
5
 10
125
 20
0
 10
111.1111111111111
 20
0
 10
111.1111111111111
 20
3
 10
97.22222222222223
 20
3
 10
97.22222222222223
 20
0
 10
83.33333333333334
 20
0
 10
83.33333333333334
 20
3
 10
69.44444444444444
 20
3
 10
69.44444444444444
 20
0
 10
55.55555555555556
 20
0
 10
55.55555555555556
 20
3
 10
41.66666666666667
 20
3
 10
41.66666666666667
 20
0
 10
27.77777777777778
 20
0
 10
27.77777777777778
 20
3
 10
13.88888888888889
 20
3
 10
13.88888888888889
 20
0
 10
0
 20
0
 10
0
 20
5
 10
3.000000000000007
 20
5
 10
3.000000000000007
 20
10
 10
0
 20
10
 10
0
 20
15
 10
3.000000000000007
 20
15
 10
3.000000000000007
 20
20
 10
0
 20
20
 10
0
 20
25
 10
3.000000000000007
 20
25
 10
3.000000000000007
 20
30
 10
0
 20
30
 10
0
 20
35
 10
13.88888888888889
 20
35
 10
13.88888888888889
 20
32
 10
27.77777777777778
 20
32
 10
27.77777777777778
 20
35
 10
41.66666666665556
 20
35
 10
41.66666666665556
 20
32
 10
55.55555555554445
 20
32
 10
55.55555555554445
 20
35
 10
69.44444444442223
 20
35
 10
69.44444444442223
 20
32
 10
83.33333333331112
 20
32
 10
83.33333333331112
 20
35
 10
97.2222222221889
 20
35
 10
97.2222222221889
 20
32
  0
ENDBLK
  5
61
330
5F
100
AcDbEntity
  8
0
100
AcDbBlockEnd
  0
BLOCK
  5
63
330
62
100
AcDbEntity
  8
0
100
AcDbBlockBegin
  2
sidebox-1
 70
    0
 10
0
 20
0
  3
sidebox-1
  1

  0
LWPOLYLINE
  5
CB
100
AcDbEntity
  8
0
  6
ByLayer
 62
  256
370
   -1
100
AcDbPolyline
 90
   60
 70
    1
 43
0
 10
111.1111111110778
 20
32
 10
111.1111111110778
 20
35
 10
125
 20
35
 10
125
 20
30
 10
122
 20
30
 10
122
 20
25
 10
125
 20
25
 10
125
 20
20
 10
122
 20
20
 10
122
 20
15
 10
125
 20
15
 10
125
 20
10
 10
122
 20
10
 10
122
 20
5
 10
125
 20
5
 10
125
 20
0
 10
111.1111111111111
 20
0
 10
111.1111111111111
 20
3
 10
97.22222222222223
 20
3
 10
97.22222222222223
 20
0
 10
83.33333333333334
 20
0
 10
83.33333333333334
 20
3
 10
69.44444444444444
 20
3
 10
69.44444444444444
 20
0
 10
55.55555555555556
 20
0
 10
55.55555555555556
 20
3
 10
41.66666666666667
 20
3
 10
41.66666666666667
 20
0
 10
27.77777777777778
 20
0
 10
27.77777777777778
 20
3
 10
13.88888888888889
 20
3
 10
13.88888888888889
 20
0
 10
0
 20
0
 10
0
 20
5
 10
3.000000000000007
 20
5
 10
3.000000000000007
 20
10
 10
0
 20
10
 10
0
 20
15
 10
3.000000000000007
 20
15
 10
3.000000000000007
 20
20
 10
0
 20
20
 10
0
 20
25
 10
3.000000000000007
 20
25
 10
3.000000000000007
 20
30
 10
0
 20
30
 10
0
 20
35
 10
13.88888888888889
 20
35
 10
13.88888888888889
 20
32
 10
27.77777777777778
 20
32
 10
27.77777777777778
 20
35
 10
41.66666666665556
 20
35
 10
41.66666666665556
 20
32
 10
55.55555555554445
 20
32
 10
55.55555555554445
 20
35
 10
69.44444444442223
 20
35
 10
69.44444444442223
 20
32
 10
83.33333333331112
 20
32
 10
83.33333333331112
 20
35
 10
97.2222222221889
 20
35
 10
97.2222222221889
 20
32
  0
ENDBLK
  5
64
330
62
100
AcDbEntity
  8
0
100
AcDbBlockEnd
  0
BLOCK
  5
66
330
65
100
AcDbEntity
  8
0
100
AcDbBlockBegin
  2
backbox-1
 70
    0
 10
0
 20
0
  3
backbox-1
  1

  0
LWPOLYLINE
  5
CC
100
AcDbEntity
  8
0
  6
ByLayer
 62
  256
370
   -1
100
AcDbPolyline
 90
   52
 70
    1
 43
0
 10
102.8571428571143
 20
32
 10
102.8571428571143
 20
35
 10
117
 20
35
 10
117
 20
30
 10
120
 20
30
 10
120
 20
25
 10
117
 20
25
 10
117
 20
20
 10
120
 20
20
 10
120
 20
15
 10
117
 20
15
 10
117
 20
10
 10
120
 20
10
 10
120
 20
5
 10
117
 20
5
 10
117
 20
0
 10
102.8571428571428
 20
0
 10
102.8571428571428
 20
3
 10
85.71428571428571
 20
3
 10
85.71428571428571
 20
0
 10
68.57142857142857
 20
0
 10
68.57142857142857
 20
3
 10
51.42857142857143
 20
3
 10
51.42857142857143
 20
0
 10
34.28571428571428
 20
0
 10
34.28571428571428
 20
3
 10
17.14285714285714
 20
3
 10
17.14285714285714
 20
0
 10
3
 20
0
 10
3
 20
5
 10
0
 20
5
 10
0
 20
10
 10
3
 20
10
 10
3
 20
15
 10
0
 20
15
 10
0
 20
20
 10
3
 20
20
 10
3
 20
25
 10
0
 20
25
 10
0
 20
30
 10
3
 20
30
 10
3
 20
35
 10
17.14285714285714
 20
35
 10
17.14285714285714
 20
32
 10
34.28571428571428
 20
32
 10
34.28571428571428
 20
35
 10
51.42857142855715
 20
35
 10
51.42857142855715
 20
32
 10
68.57142857141429
 20
32
 10
68.57142857141429
 20
35
 10
85.71428571425714
 20
35
 10
85.71428571425714
 20
32
  0
ENDBLK
  5
67
330
65
100
AcDbEntity
  8
0
100
AcDbBlockEnd
  0
BLOCK
  5
69
330
68
100
AcDbEntity
  8
0
100
AcDbBlockBegin
  2
back_DXF
 70
    0
 10
0
 20
0
  3
back_DXF
  1

  0
LWPOLYLINE
  5
CD
100
AcDbEntity
  8
0
  6
ByLayer
 62
  256
370
   -1
100
AcDbPolyline
 90
   52
 70
    1
 43
0
 10
-39.28571428574286
 20
25
 10
-39.28571428574286
 20
28
 10
-31.42857142858571
 20
28
 10
-31.42857142858571
 20
25
 10
-23.57142857144286
 20
25
 10
-23.57142857144286
 20
28
 10
-15.71428571428571
 20
28
 10
-15.71428571428571
 20
25
 10
-7.857142857142857
 20
25
 10
-7.857142857142857
 20
28
 10
0
 20
28
 10
0
 20
24
 10
-2.999999999999998
 20
24
 10
-2.999999999999998
 20
20
 10
0
 20
20
 10
0
 20
16
 10
-2.999999999999998
 20
16
 10
-2.999999999999998
 20
12
 10
0
 20
12
 10
0
 20
8
 10
-2.999999999999998
 20
8
 10
-2.999999999999998
 20
4
 10
0
 20
4
 10
0
 20
0
 10
-7.857142857142857
 20
0
 10
-7.857142857142857
 20
3
 10
-15.71428571428571
 20
3
 10
-15.71428571428571
 20
0
 10
-23.57142857142857
 20
0
 10
-23.57142857142857
 20
3
 10
-31.42857142857143
 20
3
 10
-31.42857142857143
 20
0
 10
-39.28571428571428
 20
0
 10
-39.28571428571428
 20
3
 10
-47.14285714285715
 20
3
 10
-47.14285714285715
 20
0
 10
-55
 20
0
 10
-55
 20
4
 10
-52
 20
4
 10
-52
 20
8
 10
-55
 20
8
 10
-55
 20
12
 10
-52
 20
12
 10
-52
 20
16
 10
-55
 20
16
 10
-55
 20
20
 10
-52
 20
20
 10
-52
 20
24
 10
-55
 20
24
 10
-55
 20
28
 10
-47.14285714288572
 20
28
 10
-47.14285714288572
 20
25
  0
ENDBLK
  5
6A
330
68
100
AcDbEntity
  8
0
100
AcDbBlockEnd
  0
BLOCK
  5
6C
330
6B
100
AcDbEntity
  8
0
100
AcDbBlockBegin
  2
front_DXF
 70
    0
 10
0
 20
0
  3
front_DXF
  1

  0
CIRCLE
  5
CE
100
AcDbEntity
  8
0
  6
ByLayer
 62
  256
370
   -1
100
AcDbCircle
 10
14.5
 20
14.00000000000358
 40
8.5
  0
CIRCLE
  5
CF
100
AcDbEntity
  8
0
  6
ByLayer
 62
  256
370
   -1
100
AcDbCircle
 10
40.5
 20
14.00000000000358
 40
8.499999999999996
  0
LWPOLYLINE
  5
D0
100
AcDbEntity
  8
0
  6
ByLayer
 62
  256
370
   -1
100
AcDbPolyline
 90
   52
 70
    1
 43
0
 10
39.28571428574286
 20
28
 10
39.28571428574286
 20
25
 10
47.14285714288572
 20
25
 10
47.14285714288572
 20
28
 10
55
 20
28
 10
55
 20
24
 10
52
 20
24
 10
52
 20
20
 10
55
 20
20
 10
55
 20
16
 10
52
 20
16
 10
52
 20
12
 10
55
 20
12
 10
55
 20
8
 10
52
 20
8
 10
52
 20
4
 10
55
 20
4
 10
55
 20
0
 10
47.14285714285715
 20
0
 10
47.14285714285715
 20
3
 10
39.28571428571428
 20
3
 10
39.28571428571428
 20
0
 10
31.42857142857143
 20
0
 10
31.42857142857143
 20
3
 10
23.57142857142857
 20
3
 10
23.57142857142857
 20
0
 10
15.71428571428571
 20
0
 10
15.71428571428571
 20
3
 10
7.857142857142857
 20
3
 10
7.857142857142857
 20
0
 10
0
 20
0
 10
0
 20
4
 10
2.999999999999998
 20
4
 10
2.999999999999998
 20
8
 10
0
 20
8
 10
0
 20
12
 10
2.999999999999998
 20
12
 10
2.999999999999998
 20
16
 10
0
 20
16
 10
0
 20
20
 10
2.999999999999998
 20
20
 10
2.999999999999998
 20
24
 10
0
 20
24
 10
0
 20
28
 10
7.857142857142857
 20
28
 10
7.857142857142857
 20
25
 10
15.71428571428571
 20
25
 10
15.71428571428571
 20
28
 10
23.57142857144286
 20
28
 10
23.57142857144286
 20
25
 10
31.42857142858571
 20
25
 10
31.42857142858571
 20
28
  0
ENDBLK
  5
6D
330
6B
100
AcDbEntity
  8
0
100
AcDbBlockEnd
  0
BLOCK
  5
6F
330
6E
100
AcDbEntity
  8
0
100
AcDbBlockBegin
  2
top_DXF
 70
    0
 10
0
 20
0
  3
top_DXF
  1

  0
LWPOLYLINE
  5
D1
100
AcDbEntity
  8
0
  6
ByLayer
 62
  256
370
   -1
100
AcDbPolyline
 90
   36
 70
    1
 43
0
 10
-52
 20
-3
 10
-47.14285714288572
 20
-3
 10
-47.14285714288572
 20
0
 10
-39.28571428574286
 20
0
 10
-39.28571428574286
 20
-3
 10
-31.42857142858571
 20
-3
 10
-31.42857142858571
 20
0
 10
-23.57142857144286
 20
0
 10
-23.57142857144286
 20
-3
 10
-15.71428571428571
 20
-3
 10
-15.71428571428571
 20
0
 10
-7.857142857142857
 20
0
 10
-7.857142857142857
 20
-3
 10
-2.999999999999998
 20
-3
 10
-2.999999999999998
 20
-6.666666666666679
 10
0
 20
-6.666666666666679
 10
0
 20
-13.33333333333334
 10
-2.999999999999998
 20
-13.33333333333334
 10
-2.999999999999998
 20
-17
 10
-7.857142857142857
 20
-17
 10
-7.857142857142857
 20
-20
 10
-15.71428571428571
 20
-20
 10
-15.71428571428571
 20
-17
 10
-23.57142857144286
 20
-17
 10
-23.57142857144286
 20
-20
 10
-31.42857142858571
 20
-20
 10
-31.42857142858571
 20
-17
 10
-39.28571428574286
 20
-17
 10
-39.28571428574286
 20
-20
 10
-47.14285714288572
 20
-20
 10
-47.14285714288572
 20
-17
 10
-52
 20
-17
 10
-52
 20
-13.33333333333334
 10
-55
 20
-13.33333333333334
 10
-55
 20
-6.666666666666679
 10
-52
 20
-6.666666666666679
  0
ENDBLK
  5
70
330
6E
100
AcDbEntity
  8
0
100
AcDbBlockEnd
  0
BLOCK
  5
72
330
71
100
AcDbEntity
  8
0
100
AcDbBlockBegin
  2
side_DXF
 70
    0
 10
0
 20
0
  3
side_DXF
  1

  0
LWPOLYLINE
  5
D2
100
AcDbEntity
  8
0
  6
ByLayer
 62
  256
370
   -1
100
AcDbPolyline
 90
   36
 70
    1
 43
0
 10
13.33333333333334
 20
25
 10
13.33333333333334
 20
28
 10
17
 20
28
 10
17
 20
24
 10
20
 20
24
 10
20
 20
20
 10
17
 20
20
 10
17
 20
16
 10
20
 20
16
 10
20
 20
12
 10
17
 20
12
 10
17
 20
8
 10
20
 20
8
 10
20
 20
4
 10
17
 20
4
 10
17
 20
0
 10
13.33333333333333
 20
0
 10
13.33333333333333
 20
3
 10
6.666666666666666
 20
3
 10
6.666666666666666
 20
0
 10
3
 20
0
 10
3
 20
4
 10
0
 20
3.999999999999999
 10
0
 20
8
 10
3
 20
8
 10
3
 20
12
 10
0
 20
12
 10
0
 20
16
 10
3
 20
16
 10
3
 20
20
 10
0
 20
20
 10
0
 20
24
 10
3
 20
24
 10
3
 20
28
 10
6.666666666666679
 20
28.00000000000001
 10
6.666666666666677
 20
25.00000000000001
  0
ENDBLK
  5
73
330
71
100
AcDbEntity
  8
0
100
AcDbBlockEnd
  0
BLOCK
  5
75
330
74
100
AcDbEntity
  8
0
100
AcDbBlockBegin
  2
side_DXF-0
 70
    0
 10
0
 20
0
  3
side_DXF-0
  1

  0
LWPOLYLINE
  5
D3
100
AcDbEntity
  8
0
  6
ByLayer
 62
  256
370
   -1
100
AcDbPolyline
 90
   36
 70
    1
 43
0
 10
13.33333333333334
 20
25
 10
13.33333333333334
 20
28
 10
17
 20
28
 10
17
 20
24
 10
20
 20
24
 10
20
 20
20
 10
17
 20
20
 10
17
 20
16
 10
20
 20
16
 10
20
 20
12
 10
17
 20
12
 10
17
 20
8
 10
20
 20
8
 10
20
 20
4
 10
17
 20
4
 10
17
 20
0
 10
13.33333333333333
 20
0
 10
13.33333333333333
 20
3
 10
6.666666666666666
 20
3
 10
6.666666666666666
 20
0
 10
3
 20
0
 10
3
 20
4
 10
0
 20
3.999999999999999
 10
0
 20
8
 10
3
 20
8
 10
3
 20
12
 10
0
 20
12
 10
0
 20
16
 10
3
 20
16
 10
3
 20
20
 10
0
 20
20
 10
0
 20
24
 10
3
 20
24
 10
3
 20
28
 10
6.666666666666679
 20
28.00000000000001
 10
6.666666666666677
 20
25.00000000000001
  0
ENDBLK
  5
76
330
74
100
AcDbEntity
  8
0
100
AcDbBlockEnd
  0
BLOCK
  5
78
330
77
100
AcDbEntity
  8
0
100
AcDbBlockBegin
  2
layout
 70
    0
 10
0
 20
0
  3
layout
  1

  0
INSERT
  5
D4
100
AcDbEntity
  8
0
  6
ByLayer
 62
  256
370
   -1
100
AcDbBlockReference
  2
bottombox
 10
150.462871507083
 20
-57.11447775574987
 30
0
 41
1
 42
1
 43
0
 50
0
 70
    1
 71
    1
 44
0
 45
0
  0
INSERT
  5
D5
100
AcDbEntity
  8
0
  6
ByLayer
 62
  256
370
   -1
100
AcDbBlockReference
  2
sidebox-1
 10
150.4126518624903
 20
-45.54160848058735
 30
0
 41
1
 42
1
 43
0
 50
0
 70
    1
 71
    1
 44
0
 45
0
  0
INSERT
  5
D6
100
AcDbEntity
  8
0
  6
ByLayer
 62
  256
370
   -1
100
AcDbBlockReference
  2
backbox-1
 10
287.7544248044323
 20
-45.44508725069999
 30
0
 41
1
 42
1
 43
0
 50
0
 70
    1
 71
    1
 44
0
 45
0
  0
INSERT
  5
D7
100
AcDbEntity
  8
0
  6
ByLayer
 62
  256
370
   -1
100
AcDbBlockReference
  2
back_DXF
 10
344.5671893711747
 20
-92.8902330793259
 30
0
 41
1
 42
1
 43
0
 50
0
 70
    1
 71
    1
 44
0
 45
0
  0
INSERT
  5
D8
100
AcDbEntity
  8
0
  6
ByLayer
 62
  256
370
   -1
100
AcDbBlockReference
  2
front_DXF
 10
349.6392230094212
 20
-94.06055184220841
 30
0
 41
1
 42
1
 43
0
 50
0
 70
    1
 71
    1
 44
0
 45
0
  0
INSERT
  5
D9
100
AcDbEntity
  8
0
  6
ByLayer
 62
  256
370
   -1
100
AcDbBlockReference
  2
top_DXF
 10
343.4635302117005
 20
-101.1863512241939
 30
0
 41
1
 42
1
 43
0
 50
0
 70
    1
 71
    1
 44
0
 45
0
  0
INSERT
  5
DA
100
AcDbEntity
  8
0
  6
ByLayer
 62
  256
370
   -1
100
AcDbBlockReference
  2
side_DXF
 10
352.014489470083
 20
-133.9650283813271
 30
0
 41
1
 42
1
 43
0
 50
0
 70
    1
 71
    1
 44
0
 45
0
  0
INSERT
  5
DB
100
AcDbEntity
  8
0
  6
ByLayer
 62
  256
370
   -1
100
AcDbBlockReference
  2
side_DXF-0
 10
380.0426337058926
 20
-135.3901882577242
 30
0
 41
1
 42
1
 43
0
 50
0
 70
    1
 71
    1
 44
0
 45
0
  0
INSERT
  5
DC
100
AcDbEntity
  8
0
  6
ByLayer
 62
  256
370
   -1
100
AcDbBlockReference
  2
sidebox
 10
283.13176211089
 20
-176.2447713811077
 30
0
 41
1
 42
1
 43
0
 50
0
 70
    1
 71
    1
 44
0
 45
0
  0
ENDBLK
  5
79
330
77
100
AcDbEntity
  8
0
100
AcDbBlockEnd
  0
BLOCK
  5
7B
330
7A
100
AcDbEntity
  8
0
100
AcDbBlockBegin
  2
topbox-0
 70
    0
 10
0
 20
0
  3
topbox-0
  1

  0
LWPOLYLINE
  5
DD
100
AcDbEntity
  8
0
  6
ByLayer
 62
  256
370
   -1
100
AcDbPolyline
 90
    4
 70
    1
 43
0
 10
-77.75
 20
-29
 10
-77.75
 20
-26.6
 10
-87.25
 20
-26.6
 10
-87.25
 20
-29
  0
LWPOLYLINE
  5
DE
100
AcDbEntity
  8
0
  6
ByLayer
 62
  256
370
   -1
100
AcDbPolyline
 90
    6
 70
    1
 43
0
 10
-55
 20
-15
 10
-62.85714285714285
 20
-15
 10
-62.85714285714285
 20
-18
 10
-58
 20
-18
 10
-58
 20
-21.66666666666666
 10
-55
 20
-21.66666666666666
  0
LWPOLYLINE
  5
DF
100
AcDbEntity
  8
0
  6
ByLayer
 62
  256
370
   -1
100
AcDbPolyline
 90
    4
 70
    1
 43
0
 10
-70.71428571428571
 20
-18
 10
-70.71428571428571
 20
-15
 10
-78.57142857142858
 20
-15
 10
-78.57142857142858
 20
-18
  0
LWPOLYLINE
  5
E0
100
AcDbEntity
  8
0
  6
ByLayer
 62
  256
370
   -1
100
AcDbPolyline
 90
    4
 70
    1
 43
0
 10
-86.42857142857142
 20
-18
 10
-86.42857142857142
 20
-15
 10
-94.28571428571429
 20
-15
 10
-94.28571428571429
 20
-18
  0
LWPOLYLINE
  5
E1
100
AcDbEntity
  8
0
  6
ByLayer
 62
  256
370
   -1
100
AcDbPolyline
 90
    6
 70
    1
 43
0
 10
-102.1428571428572
 20
-18
 10
-102.1428571428572
 20
-15
 10
-110
 20
-15
 10
-110
 20
-21.66666666666666
 10
-107
 20
-21.66666666666666
 10
-107
 20
-18
  0
LWPOLYLINE
  5
E2
100
AcDbEntity
  8
0
  6
ByLayer
 62
  256
370
   -1
100
AcDbPolyline
 90
   60
 70
    1
 43
0
 10
-3.000000000000007
 20
-102.8571428571143
 10
-3.000000000000007
 20
-117
 10
-13.88888888888889
 20
-117
 10
-13.88888888888889
 20
-120
 10
-27.77777777777778
 20
-120
 10
-27.77777777777778
 20
-117
 10
-41.66666666665556
 20
-117
 10
-41.66666666665556
 20
-120
 10
-55.55555555554445
 20
-120
 10
-55.55555555554445
 20
-117
 10
-69.44444444442223
 20
-117
 10
-69.44444444442223
 20
-120
 10
-83.33333333331112
 20
-120
 10
-83.33333333331112
 20
-117
 10
-97.2222222221889
 20
-117
 10
-97.2222222221889
 20
-120
 10
-111.1111111110778
 20
-120
 10
-111.1111111110778
 20
-117
 10
-122
 20
-117
 10
-122
 20
-102.8571428571143
 10
-125
 20
-102.8571428571143
 10
-125
 20
-85.71428571425714
 10
-122
 20
-85.71428571425714
 10
-122
 20
-68.57142857141429
 10
-125
 20
-68.57142857141429
 10
-125
 20
-51.42857142855715
 10
-122
 20
-51.42857142855715
 10
-122
 20
-34.28571428571428
 10
-125
 20
-34.28571428571428
 10
-125
 20
-17.14285714285714
 10
-122
 20
-17.14285714285714
 10
-122
 20
-3.000000000000007
 10
-111.1111111110778
 20
-3
 10
-111.1111111110778
 20
0
 10
-97.2222222221889
 20
0
 10
-97.2222222221889
 20
-3
 10
-83.33333333331112
 20
-3
 10
-83.33333333331112
 20
0
 10
-69.44444444442223
 20
0
 10
-69.44444444442223
 20
-3
 10
-55.55555555554445
 20
-3
 10
-55.55555555554445
 20
0
 10
-41.66666666665556
 20
0
 10
-41.66666666665556
 20
-3
 10
-27.77777777777778
 20
-3
 10
-27.77777777777778
 20
0
 10
-13.88888888888889
 20
0
 10
-13.88888888888889
 20
-3
 10
-3.000000000000007
 20
-3.000000000000007
 10
-3.000000000000007
 20
-17.14285714285714
 10
0
 20
-17.14285714285714
 10
0
 20
-34.28571428571428
 10
-3.000000000000007
 20
-34.28571428571428
 10
-3.000000000000007
 20
-51.42857142855715
 10
0
 20
-51.42857142855715
 10
0
 20
-68.57142857141429
 10
-3.000000000000007
 20
-68.57142857141429
 10
-3.000000000000007
 20
-85.71428571425714
 10
0
 20
-85.71428571425714
 10
0
 20
-102.8571428571143
  0
CIRCLE
  5
E3
100
AcDbEntity
  8
0
  6
ByLayer
 62
  256
370
   -1
100
AcDbCircle
 10
-51.49999999999999
 20
-85
 40
24.9
  0
CIRCLE
  5
E4
100
AcDbEntity
  8
0
  6
ByLayer
 62
  256
370
   -1
100
AcDbCircle
 10
-91.5
 20
-85
 40
4.599999999999991
  0
CIRCLE
  5
E5
100
AcDbEntity
  8
0
  6
ByLayer
 62
  256
370
   -1
100
AcDbCircle
 10
-100
 20
-102.5
 40
2.100000000000009
  0
CIRCLE
  5
E6
100
AcDbEntity
  8
0
  6
ByLayer
 62
  256
370
   -1
100
AcDbCircle
 10
-100
 20
-67.50000000000001
 40
2.100000000000009
  0
LWPOLYLINE
  5
E7
100
AcDbEntity
  8
0
  6
ByLayer
 62
  256
370
   -1
100
AcDbPolyline
 90
    6
 70
    1
 43
0
 10
-102.1428571428572
 20
-35
 10
-102.1428571428572
 20
-32
 10
-107
 20
-32
 10
-107
 20
-28.33333333333333
 10
-110
 20
-28.33333333333333
 10
-110
 20
-35
  0
LWPOLYLINE
  5
E8
100
AcDbEntity
  8
0
  6
ByLayer
 62
  256
370
   -1
100
AcDbPolyline
 90
    6
 70
    1
 43
0
 10
-55
 20
-28.33333333333333
 10
-58
 20
-28.33333333333333
 10
-58
 20
-32
 10
-62.85714285714285
 20
-32
 10
-62.85714285714285
 20
-35
 10
-55
 20
-35
  0
LWPOLYLINE
  5
E9
100
AcDbEntity
  8
0
  6
ByLayer
 62
  256
370
   -1
100
AcDbPolyline
 90
    4
 70
    1
 43
0
 10
-70.71428571428571
 20
-32
 10
-78.57142857142858
 20
-32
 10
-78.57142857142858
 20
-35
 10
-70.71428571428571
 20
-35
  0
LWPOLYLINE
  5
EA
100
AcDbEntity
  8
0
  6
ByLayer
 62
  256
370
   -1
100
AcDbPolyline
 90
    4
 70
    1
 43
0
 10
-86.42857142857142
 20
-32
 10
-94.28571428571429
 20
-32
 10
-94.28571428571429
 20
-35
 10
-86.42857142857142
 20
-35
  0
ENDBLK
  5
7C
330
7A
100
AcDbEntity
  8
0
100
AcDbBlockEnd
  0
BLOCK
  5
7E
330
7D
100
AcDbEntity
  8
0
100
AcDbBlockBegin
  2
backbox-2
 70
    0
 10
0
 20
0
  3
backbox-2
  1

  0
LWPOLYLINE
  5
EB
100
AcDbEntity
  8
0
  6
ByLayer
 62
  256
370
   -1
100
AcDbPolyline
 90
   52
 70
    1
 43
0
 10
102.8571428571143
 20
32
 10
102.8571428571143
 20
35
 10
117
 20
35
 10
117
 20
30
 10
120
 20
30
 10
120
 20
25
 10
117
 20
25
 10
117
 20
20
 10
120
 20
20
 10
120
 20
15
 10
117
 20
15
 10
117
 20
10
 10
120
 20
10
 10
120
 20
5
 10
117
 20
5
 10
117
 20
0
 10
102.8571428571428
 20
0
 10
102.8571428571428
 20
3
 10
85.71428571428571
 20
3
 10
85.71428571428571
 20
0
 10
68.57142857142857
 20
0
 10
68.57142857142857
 20
3
 10
51.42857142857143
 20
3
 10
51.42857142857143
 20
0
 10
34.28571428571428
 20
0
 10
34.28571428571428
 20
3
 10
17.14285714285714
 20
3
 10
17.14285714285714
 20
0
 10
3
 20
0
 10
3
 20
5
 10
0
 20
5
 10
0
 20
10
 10
3
 20
10
 10
3
 20
15
 10
0
 20
15
 10
0
 20
20
 10
3
 20
20
 10
3
 20
25
 10
0
 20
25
 10
0
 20
30
 10
3
 20
30
 10
3
 20
35
 10
17.14285714285714
 20
35
 10
17.14285714285714
 20
32
 10
34.28571428571428
 20
32
 10
34.28571428571428
 20
35
 10
51.42857142855715
 20
35
 10
51.42857142855715
 20
32
 10
68.57142857141429
 20
32
 10
68.57142857141429
 20
35
 10
85.71428571425714
 20
35
 10
85.71428571425714
 20
32
  0
ENDBLK
  5
7F
330
7D
100
AcDbEntity
  8
0
100
AcDbBlockEnd
  0
BLOCK
  5
81
330
80
100
AcDbEntity
  8
0
100
AcDbBlockBegin
  2
bottombox-0
 70
    0
 10
0
 20
0
  3
bottombox-0
  1

  0
LWPOLYLINE
  5
EC
100
AcDbEntity
  8
0
  6
ByLayer
 62
  256
370
   -1
100
AcDbPolyline
 90
   60
 70
    1
 43
0
 10
13.88888888888889
 20
-117
 10
3.000000000000007
 20
-117
 10
3.000000000000007
 20
-102.8571428571428
 10
0
 20
-102.8571428571428
 10
0
 20
-85.71428571428571
 10
3.000000000000007
 20
-85.71428571428571
 10
3.000000000000007
 20
-68.57142857142857
 10
0
 20
-68.57142857142857
 10
0
 20
-51.42857142857143
 10
3.000000000000007
 20
-51.42857142857143
 10
3.000000000000007
 20
-34.28571428571428
 10
0
 20
-34.28571428571428
 10
0
 20
-17.14285714285714
 10
3.000000000000007
 20
-17.14285714285714
 10
3.000000000000007
 20
-3
 10
13.88888888888889
 20
-3
 10
13.88888888888889
 20
0
 10
27.77777777777778
 20
0
 10
27.77777777777778
 20
-3
 10
41.66666666666667
 20
-3
 10
41.66666666666667
 20
0
 10
55.55555555555556
 20
0
 10
55.55555555555556
 20
-3
 10
69.44444444444444
 20
-3
 10
69.44444444444444
 20
0
 10
83.33333333333334
 20
0
 10
83.33333333333334
 20
-3
 10
97.22222222222223
 20
-3
 10
97.22222222222223
 20
0
 10
111.1111111111111
 20
0
 10
111.1111111111111
 20
-3
 10
122
 20
-3
 10
122
 20
-17.14285714285714
 10
125
 20
-17.14285714285714
 10
125
 20
-34.28571428571428
 10
122
 20
-34.28571428571428
 10
122
 20
-51.42857142857143
 10
125
 20
-51.42857142857143
 10
125
 20
-68.57142857142857
 10
122
 20
-68.57142857142857
 10
122
 20
-85.71428571428571
 10
125
 20
-85.71428571428571
 10
125
 20
-102.8571428571428
 10
122
 20
-102.8571428571428
 10
122
 20
-117
 10
111.1111111111111
 20
-117
 10
111.1111111111111
 20
-120
 10
97.22222222222223
 20
-120
 10
97.22222222222223
 20
-117
 10
83.33333333333334
 20
-117
 10
83.33333333333334
 20
-120
 10
69.44444444444444
 20
-120
 10
69.44444444444444
 20
-117
 10
55.55555555555556
 20
-117
 10
55.55555555555556
 20
-120
 10
41.66666666666667
 20
-120
 10
41.66666666666667
 20
-117
 10
27.77777777777778
 20
-117
 10
27.77777777777778
 20
-120
 10
13.88888888888889
 20
-120
  0
ENDBLK
  5
82
330
80
100
AcDbEntity
  8
0
100
AcDbBlockEnd
  0
BLOCK
  5
84
330
83
100
AcDbEntity
  8
0
100
AcDbBlockBegin
  2
sidebox-2
 70
    0
 10
0
 20
0
  3
sidebox-2
  1

  0
LWPOLYLINE
  5
ED
100
AcDbEntity
  8
0
  6
ByLayer
 62
  256
370
   -1
100
AcDbPolyline
 90
   60
 70
    1
 43
0
 10
111.1111111110778
 20
32
 10
111.1111111110778
 20
35
 10
125
 20
35
 10
125
 20
30
 10
122
 20
30
 10
122
 20
25
 10
125
 20
25
 10
125
 20
20
 10
122
 20
20
 10
122
 20
15
 10
125
 20
15
 10
125
 20
10
 10
122
 20
10
 10
122
 20
5
 10
125
 20
5
 10
125
 20
0
 10
111.1111111111111
 20
0
 10
111.1111111111111
 20
3
 10
97.22222222222223
 20
3
 10
97.22222222222223
 20
0
 10
83.33333333333334
 20
0
 10
83.33333333333334
 20
3
 10
69.44444444444444
 20
3
 10
69.44444444444444
 20
0
 10
55.55555555555556
 20
0
 10
55.55555555555556
 20
3
 10
41.66666666666667
 20
3
 10
41.66666666666667
 20
0
 10
27.77777777777778
 20
0
 10
27.77777777777778
 20
3
 10
13.88888888888889
 20
3
 10
13.88888888888889
 20
0
 10
0
 20
0
 10
0
 20
5
 10
3.000000000000007
 20
5
 10
3.000000000000007
 20
10
 10
0
 20
10
 10
0
 20
15
 10
3.000000000000007
 20
15
 10
3.000000000000007
 20
20
 10
0
 20
20
 10
0
 20
25
 10
3.000000000000007
 20
25
 10
3.000000000000007
 20
30
 10
0
 20
30
 10
0
 20
35
 10
13.88888888888889
 20
35
 10
13.88888888888889
 20
32
 10
27.77777777777778
 20
32
 10
27.77777777777778
 20
35
 10
41.66666666665556
 20
35
 10
41.66666666665556
 20
32
 10
55.55555555554445
 20
32
 10
55.55555555554445
 20
35
 10
69.44444444442223
 20
35
 10
69.44444444442223
 20
32
 10
83.33333333331112
 20
32
 10
83.33333333331112
 20
35
 10
97.2222222221889
 20
35
 10
97.2222222221889
 20
32
  0
ENDBLK
  5
85
330
83
100
AcDbEntity
  8
0
100
AcDbBlockEnd
  0
BLOCK
  5
87
330
86
100
AcDbEntity
  8
0
100
AcDbBlockBegin
  2
back_DXF-0
 70
    0
 10
0
 20
0
  3
back_DXF-0
  1

  0
LWPOLYLINE
  5
EE
100
AcDbEntity
  8
0
  6
ByLayer
 62
  256
370
   -1
100
AcDbPolyline
 90
   52
 70
    1
 43
0
 10
-39.28571428574286
 20
25
 10
-39.28571428574286
 20
28
 10
-31.42857142858571
 20
28
 10
-31.42857142858571
 20
25
 10
-23.57142857144286
 20
25
 10
-23.57142857144286
 20
28
 10
-15.71428571428571
 20
28
 10
-15.71428571428571
 20
25
 10
-7.857142857142857
 20
25
 10
-7.857142857142857
 20
28
 10
0
 20
28
 10
0
 20
24
 10
-2.999999999999998
 20
24
 10
-2.999999999999998
 20
20
 10
0
 20
20
 10
0
 20
16
 10
-2.999999999999998
 20
16
 10
-2.999999999999998
 20
12
 10
0
 20
12
 10
0
 20
8
 10
-2.999999999999998
 20
8
 10
-2.999999999999998
 20
4
 10
0
 20
4
 10
0
 20
0
 10
-7.857142857142857
 20
0
 10
-7.857142857142857
 20
3
 10
-15.71428571428571
 20
3
 10
-15.71428571428571
 20
0
 10
-23.57142857142857
 20
0
 10
-23.57142857142857
 20
3
 10
-31.42857142857143
 20
3
 10
-31.42857142857143
 20
0
 10
-39.28571428571428
 20
0
 10
-39.28571428571428
 20
3
 10
-47.14285714285715
 20
3
 10
-47.14285714285715
 20
0
 10
-55
 20
0
 10
-55
 20
4
 10
-52
 20
4
 10
-52
 20
8
 10
-55
 20
8
 10
-55
 20
12
 10
-52
 20
12
 10
-52
 20
16
 10
-55
 20
16
 10
-55
 20
20
 10
-52
 20
20
 10
-52
 20
24
 10
-55
 20
24
 10
-55
 20
28
 10
-47.14285714288572
 20
28
 10
-47.14285714288572
 20
25
  0
ENDBLK
  5
88
330
86
100
AcDbEntity
  8
0
100
AcDbBlockEnd
  0
BLOCK
  5
8A
330
89
100
AcDbEntity
  8
0
100
AcDbBlockBegin
  2
front_DXF-0
 70
    0
 10
0
 20
0
  3
front_DXF-0
  1

  0
CIRCLE
  5
EF
100
AcDbEntity
  8
0
  6
ByLayer
 62
  256
370
   -1
100
AcDbCircle
 10
14.5
 20
14.00000000000358
 40
8.5
  0
CIRCLE
  5
F0
100
AcDbEntity
  8
0
  6
ByLayer
 62
  256
370
   -1
100
AcDbCircle
 10
40.5
 20
14.00000000000358
 40
8.499999999999996
  0
LWPOLYLINE
  5
F1
100
AcDbEntity
  8
0
  6
ByLayer
 62
  256
370
   -1
100
AcDbPolyline
 90
   52
 70
    1
 43
0
 10
39.28571428574286
 20
28
 10
39.28571428574286
 20
25
 10
47.14285714288572
 20
25
 10
47.14285714288572
 20
28
 10
55
 20
28
 10
55
 20
24
 10
52
 20
24
 10
52
 20
20
 10
55
 20
20
 10
55
 20
16
 10
52
 20
16
 10
52
 20
12
 10
55
 20
12
 10
55
 20
8
 10
52
 20
8
 10
52
 20
4
 10
55
 20
4
 10
55
 20
0
 10
47.14285714285715
 20
0
 10
47.14285714285715
 20
3
 10
39.28571428571428
 20
3
 10
39.28571428571428
 20
0
 10
31.42857142857143
 20
0
 10
31.42857142857143
 20
3
 10
23.57142857142857
 20
3
 10
23.57142857142857
 20
0
 10
15.71428571428571
 20
0
 10
15.71428571428571
 20
3
 10
7.857142857142857
 20
3
 10
7.857142857142857
 20
0
 10
0
 20
0
 10
0
 20
4
 10
2.999999999999998
 20
4
 10
2.999999999999998
 20
8
 10
0
 20
8
 10
0
 20
12
 10
2.999999999999998
 20
12
 10
2.999999999999998
 20
16
 10
0
 20
16
 10
0
 20
20
 10
2.999999999999998
 20
20
 10
2.999999999999998
 20
24
 10
0
 20
24
 10
0
 20
28
 10
7.857142857142857
 20
28
 10
7.857142857142857
 20
25
 10
15.71428571428571
 20
25
 10
15.71428571428571
 20
28
 10
23.57142857144286
 20
28
 10
23.57142857144286
 20
25
 10
31.42857142858571
 20
25
 10
31.42857142858571
 20
28
  0
ENDBLK
  5
8B
330
89
100
AcDbEntity
  8
0
100
AcDbBlockEnd
  0
BLOCK
  5
8D
330
8C
100
AcDbEntity
  8
0
100
AcDbBlockBegin
  2
top_DXF-0
 70
    0
 10
0
 20
0
  3
top_DXF-0
  1

  0
LWPOLYLINE
  5
F2
100
AcDbEntity
  8
0
  6
ByLayer
 62
  256
370
   -1
100
AcDbPolyline
 90
   36
 70
    1
 43
0
 10
-52
 20
-3
 10
-47.14285714288572
 20
-3
 10
-47.14285714288572
 20
0
 10
-39.28571428574286
 20
0
 10
-39.28571428574286
 20
-3
 10
-31.42857142858571
 20
-3
 10
-31.42857142858571
 20
0
 10
-23.57142857144286
 20
0
 10
-23.57142857144286
 20
-3
 10
-15.71428571428571
 20
-3
 10
-15.71428571428571
 20
0
 10
-7.857142857142857
 20
0
 10
-7.857142857142857
 20
-3
 10
-2.999999999999998
 20
-3
 10
-2.999999999999998
 20
-6.666666666666679
 10
0
 20
-6.666666666666679
 10
0
 20
-13.33333333333334
 10
-2.999999999999998
 20
-13.33333333333334
 10
-2.999999999999998
 20
-17
 10
-7.857142857142857
 20
-17
 10
-7.857142857142857
 20
-20
 10
-15.71428571428571
 20
-20
 10
-15.71428571428571
 20
-17
 10
-23.57142857144286
 20
-17
 10
-23.57142857144286
 20
-20
 10
-31.42857142858571
 20
-20
 10
-31.42857142858571
 20
-17
 10
-39.28571428574286
 20
-17
 10
-39.28571428574286
 20
-20
 10
-47.14285714288572
 20
-20
 10
-47.14285714288572
 20
-17
 10
-52
 20
-17
 10
-52
 20
-13.33333333333334
 10
-55
 20
-13.33333333333334
 10
-55
 20
-6.666666666666679
 10
-52
 20
-6.666666666666679
  0
ENDBLK
  5
8E
330
8C
100
AcDbEntity
  8
0
100
AcDbBlockEnd
  0
BLOCK
  5
90
330
8F
100
AcDbEntity
  8
0
100
AcDbBlockBegin
  2
side_DXF-1
 70
    0
 10
0
 20
0
  3
side_DXF-1
  1

  0
LWPOLYLINE
  5
F3
100
AcDbEntity
  8
0
  6
ByLayer
 62
  256
370
   -1
100
AcDbPolyline
 90
   36
 70
    1
 43
0
 10
13.33333333333334
 20
25
 10
13.33333333333334
 20
28
 10
17
 20
28
 10
17
 20
24
 10
20
 20
24
 10
20
 20
20
 10
17
 20
20
 10
17
 20
16
 10
20
 20
16
 10
20
 20
12
 10
17
 20
12
 10
17
 20
8
 10
20
 20
8
 10
20
 20
4
 10
17
 20
4
 10
17
 20
0
 10
13.33333333333333
 20
0
 10
13.33333333333333
 20
3
 10
6.666666666666666
 20
3
 10
6.666666666666666
 20
0
 10
3
 20
0
 10
3
 20
4
 10
0
 20
3.999999999999999
 10
0
 20
8
 10
3
 20
8
 10
3
 20
12
 10
0
 20
12
 10
0
 20
16
 10
3
 20
16
 10
3
 20
20
 10
0
 20
20
 10
0
 20
24
 10
3
 20
24
 10
3
 20
28
 10
6.666666666666679
 20
28.00000000000001
 10
6.666666666666677
 20
25.00000000000001
  0
ENDBLK
  5
91
330
8F
100
AcDbEntity
  8
0
100
AcDbBlockEnd
  0
BLOCK
  5
93
330
92
100
AcDbEntity
  8
0
100
AcDbBlockBegin
  2
layout-0
 70
    0
 10
0
 20
0
  3
layout-0
  1

  0
INSERT
  5
F4
100
AcDbEntity
  8
0
  6
ByLayer
 62
  256
370
   -1
100
AcDbBlockReference
  2
bottombox-0
 10
150.462871507083
 20
-57.11447775574987
 30
0
 41
1
 42
1
 43
0
 50
0
 70
    1
 71
    1
 44
0
 45
0
  0
INSERT
  5
F5
100
AcDbEntity
  8
0
  6
ByLayer
 62
  256
370
   -1
100
AcDbBlockReference
  2
sidebox-2
 10
150.4126518624903
 20
-45.54160848058735
 30
0
 41
1
 42
1
 43
0
 50
0
 70
    1
 71
    1
 44
0
 45
0
  0
INSERT
  5
F6
100
AcDbEntity
  8
0
  6
ByLayer
 62
  256
370
   -1
100
AcDbBlockReference
  2
backbox-2
 10
287.7544248044323
 20
-45.44508725069999
 30
0
 41
1
 42
1
 43
0
 50
0
 70
    1
 71
    1
 44
0
 45
0
  0
INSERT
  5
F7
100
AcDbEntity
  8
0
  6
ByLayer
 62
  256
370
   -1
100
AcDbBlockReference
  2
back_DXF-0
 10
344.5671893711747
 20
-92.8902330793259
 30
0
 41
1
 42
1
 43
0
 50
0
 70
    1
 71
    1
 44
0
 45
0
  0
INSERT
  5
F8
100
AcDbEntity
  8
0
  6
ByLayer
 62
  256
370
   -1
100
AcDbBlockReference
  2
front_DXF-0
 10
349.6392230094212
 20
-94.06055184220841
 30
0
 41
1
 42
1
 43
0
 50
0
 70
    1
 71
    1
 44
0
 45
0
  0
INSERT
  5
F9
100
AcDbEntity
  8
0
  6
ByLayer
 62
  256
370
   -1
100
AcDbBlockReference
  2
top_DXF-0
 10
343.4635302117005
 20
-101.1863512241939
 30
0
 41
1
 42
1
 43
0
 50
0
 70
    1
 71
    1
 44
0
 45
0
  0
INSERT
  5
FA
100
AcDbEntity
  8
0
  6
ByLayer
 62
  256
370
   -1
100
AcDbBlockReference
  2
side_DXF-1
 10
352.014489470083
 20
-133.9650283813271
 30
0
 41
1
 42
1
 43
0
 50
0
 70
    1
 71
    1
 44
0
 45
0
  0
INSERT
  5
FB
100
AcDbEntity
  8
0
  6
ByLayer
 62
  256
370
   -1
100
AcDbBlockReference
  2
side_DXF-1
 10
380.0426337058926
 20
-135.3901882577242
 30
0
 41
1
 42
1
 43
0
 50
0
 70
    1
 71
    1
 44
0
 45
0
  0
INSERT
  5
FC
100
AcDbEntity
  8
0
  6
ByLayer
 62
  256
370
   -1
100
AcDbBlockReference
  2
sidebox-2
 10
283.13176211089
 20
-176.2447713811077
 30
0
 41
1
 42
1
 43
0
 50
0
 70
    1
 71
    1
 44
0
 45
0
  0
ENDBLK
  5
94
330
92
100
AcDbEntity
  8
0
100
AcDbBlockEnd
  0
BLOCK
  5
96
330
95
100
AcDbEntity
  8
0
100
AcDbBlockBegin
  2
sidebox-3
 70
    0
 10
0
 20
0
  3
sidebox-3
  1

  0
LWPOLYLINE
  5
FD
100
AcDbEntity
  8
0
  6
ByLayer
 62
  256
370
   -1
100
AcDbPolyline
 90
   60
 70
    1
 43
0
 10
111.1111111110778
 20
32
 10
111.1111111110778
 20
35
 10
125
 20
35
 10
125
 20
30
 10
122
 20
30
 10
122
 20
25
 10
125
 20
25
 10
125
 20
20
 10
122
 20
20
 10
122
 20
15
 10
125
 20
15
 10
125
 20
10
 10
122
 20
10
 10
122
 20
5
 10
125
 20
5
 10
125
 20
0
 10
111.1111111111111
 20
0
 10
111.1111111111111
 20
3
 10
97.22222222222223
 20
3
 10
97.22222222222223
 20
0
 10
83.33333333333334
 20
0
 10
83.33333333333334
 20
3
 10
69.44444444444444
 20
3
 10
69.44444444444444
 20
0
 10
55.55555555555556
 20
0
 10
55.55555555555556
 20
3
 10
41.66666666666667
 20
3
 10
41.66666666666667
 20
0
 10
27.77777777777778
 20
0
 10
27.77777777777778
 20
3
 10
13.88888888888889
 20
3
 10
13.88888888888889
 20
0
 10
0
 20
0
 10
0
 20
5
 10
3.000000000000007
 20
5
 10
3.000000000000007
 20
10
 10
0
 20
10
 10
0
 20
15
 10
3.000000000000007
 20
15
 10
3.000000000000007
 20
20
 10
0
 20
20
 10
0
 20
25
 10
3.000000000000007
 20
25
 10
3.000000000000007
 20
30
 10
0
 20
30
 10
0
 20
35
 10
13.88888888888889
 20
35
 10
13.88888888888889
 20
32
 10
27.77777777777778
 20
32
 10
27.77777777777778
 20
35
 10
41.66666666665556
 20
35
 10
41.66666666665556
 20
32
 10
55.55555555554445
 20
32
 10
55.55555555554445
 20
35
 10
69.44444444442223
 20
35
 10
69.44444444442223
 20
32
 10
83.33333333331112
 20
32
 10
83.33333333331112
 20
35
 10
97.2222222221889
 20
35
 10
97.2222222221889
 20
32
  0
ENDBLK
  5
97
330
95
100
AcDbEntity
  8
0
100
AcDbBlockEnd
  0
BLOCK
  5
99
330
98
100
AcDbEntity
  8
0
100
AcDbBlockBegin
  2
bottombox-1
 70
    0
 10
0
 20
0
  3
bottombox-1
  1

  0
LWPOLYLINE
  5
FE
100
AcDbEntity
  8
0
  6
ByLayer
 62
  256
370
   -1
100
AcDbPolyline
 90
   60
 70
    1
 43
0
 10
13.88888888888889
 20
-127
 10
3.000000000000007
 20
-127
 10
3.000000000000007
 20
-111.4285714285714
 10
0
 20
-111.4285714285714
 10
0
 20
-92.85714285714286
 10
3.000000000000007
 20
-92.85714285714286
 10
3.000000000000007
 20
-74.28571428571429
 10
0
 20
-74.28571428571429
 10
0
 20
-55.71428571428571
 10
3.000000000000007
 20
-55.71428571428571
 10
3.000000000000007
 20
-37.14285714285715
 10
0
 20
-37.14285714285715
 10
0
 20
-18.57142857142857
 10
3.000000000000007
 20
-18.57142857142857
 10
3.000000000000007
 20
-3
 10
13.88888888888889
 20
-3
 10
13.88888888888889
 20
0
 10
27.77777777777778
 20
0
 10
27.77777777777778
 20
-3
 10
41.66666666666667
 20
-3
 10
41.66666666666667
 20
0
 10
55.55555555555556
 20
0
 10
55.55555555555556
 20
-3
 10
69.44444444444444
 20
-3
 10
69.44444444444444
 20
0
 10
83.33333333333334
 20
0
 10
83.33333333333334
 20
-3
 10
97.22222222222223
 20
-3
 10
97.22222222222223
 20
0
 10
111.1111111111111
 20
0
 10
111.1111111111111
 20
-3
 10
122
 20
-3
 10
122
 20
-18.57142857142857
 10
125
 20
-18.57142857142857
 10
125
 20
-37.14285714285715
 10
122
 20
-37.14285714285715
 10
122
 20
-55.71428571428571
 10
125
 20
-55.71428571428571
 10
125
 20
-74.28571428571429
 10
122
 20
-74.28571428571429
 10
122
 20
-92.85714285714286
 10
125
 20
-92.85714285714286
 10
125
 20
-111.4285714285714
 10
122
 20
-111.4285714285714
 10
122
 20
-127
 10
111.1111111111111
 20
-127
 10
111.1111111111111
 20
-130
 10
97.22222222222223
 20
-130
 10
97.22222222222223
 20
-127
 10
83.33333333333334
 20
-127
 10
83.33333333333334
 20
-130
 10
69.44444444444444
 20
-130
 10
69.44444444444444
 20
-127
 10
55.55555555555556
 20
-127
 10
55.55555555555556
 20
-130
 10
41.66666666666667
 20
-130
 10
41.66666666666667
 20
-127
 10
27.77777777777778
 20
-127
 10
27.77777777777778
 20
-130
 10
13.88888888888889
 20
-130
  0
ENDBLK
  5
9A
330
98
100
AcDbEntity
  8
0
100
AcDbBlockEnd
  0
BLOCK
  5
9C
330
9B
100
AcDbEntity
  8
0
100
AcDbBlockBegin
  2
front_DXF-1
 70
    0
 10
0
 20
0
  3
front_DXF-1
  1

  0
LWPOLYLINE
  5
FF
100
AcDbEntity
  8
0
  6
ByLayer
 62
  256
370
   -1
100
AcDbPolyline
 90
   60
 70
    1
 43
0
 10
111.1111111110778
 20
42
 10
111.1111111110778
 20
45
 10
125
 20
45
 10
125
 20
38.57142857142857
 10
122
 20
38.57142857142857
 10
122
 20
32.14285714285714
 10
125
 20
32.14285714285714
 10
125
 20
25.71428571428571
 10
122
 20
25.71428571428571
 10
122
 20
19.28571428571428
 10
125
 20
19.28571428571428
 10
125
 20
12.85714285714286
 10
122
 20
12.85714285714286
 10
122
 20
6.428571428571429
 10
125
 20
6.428571428571429
 10
125
 20
0
 10
111.1111111111111
 20
0
 10
111.1111111111111
 20
3
 10
97.22222222222223
 20
3
 10
97.22222222222223
 20
0
 10
83.33333333333334
 20
0
 10
83.33333333333334
 20
3
 10
69.44444444444444
 20
3
 10
69.44444444444444
 20
0
 10
55.55555555555556
 20
0
 10
55.55555555555556
 20
3
 10
41.66666666666667
 20
3
 10
41.66666666666667
 20
0
 10
27.77777777777778
 20
0
 10
27.77777777777778
 20
3
 10
13.88888888888889
 20
3
 10
13.88888888888889
 20
0
 10
0
 20
0
 10
0
 20
6.428571428571429
 10
3.000000000000007
 20
6.428571428571429
 10
3.000000000000007
 20
12.85714285714286
 10
0
 20
12.85714285714286
 10
0
 20
19.28571428572143
 10
3.000000000000007
 20
19.28571428572143
 10
3.000000000000007
 20
25.71428571429286
 10
0
 20
25.71428571429286
 10
0
 20
32.14285714287143
 10
3.000000000000007
 20
32.14285714287143
 10
3.000000000000007
 20
38.57142857144286
 10
0
 20
38.57142857144286
 10
0
 20
45
 10
13.88888888888889
 20
45
 10
13.88888888888889
 20
42
 10
27.77777777777778
 20
42
 10
27.77777777777778
 20
45
 10
41.66666666665556
 20
45
 10
41.66666666665556
 20
42
 10
55.55555555554445
 20
42
 10
55.55555555554445
 20
45
 10
69.44444444442223
 20
45
 10
69.44444444442223
 20
42
 10
83.33333333331112
 20
42
 10
83.33333333331112
 20
45
 10
97.2222222221889
 20
45
 10
97.2222222221889
 20
42
  0
ENDBLK
  5
9D
330
9B
100
AcDbEntity
  8
0
100
AcDbBlockEnd
  0
BLOCK
  5
9F
330
9E
100
AcDbEntity
  8
0
100
AcDbBlockBegin
  2
side_DXF-2
 70
    0
 10
0
 20
0
  3
side_DXF-2
  1

  0
LWPOLYLINE
  5
100
100
AcDbEntity
  8
0
  6
ByLayer
 62
  256
370
   -1
100
AcDbPolyline
 90
   52
 70
    1
 43
0
 10
111.4285714285571
 20
42
 10
111.4285714285571
 20
45
 10
127
 20
45
 10
127
 20
38.57142857142857
 10
130
 20
38.57142857142857
 10
130
 20
32.14285714285714
 10
127
 20
32.14285714285714
 10
127
 20
25.71428571428571
 10
130
 20
25.71428571428571
 10
130
 20
19.28571428571428
 10
127
 20
19.28571428571428
 10
127
 20
12.85714285714286
 10
130
 20
12.85714285714286
 10
130
 20
6.428571428571429
 10
127
 20
6.428571428571429
 10
127
 20
0
 10
111.4285714285714
 20
0
 10
111.4285714285714
 20
3
 10
92.85714285714286
 20
3
 10
92.85714285714286
 20
0
 10
74.28571428571429
 20
0
 10
74.28571428571429
 20
3
 10
55.71428571428571
 20
3
 10
55.71428571428571
 20
0
 10
37.14285714285715
 20
0
 10
37.14285714285715
 20
3
 10
18.57142857142857
 20
3
 10
18.57142857142857
 20
0
 10
3
 20
0
 10
3
 20
6.428571428571429
 10
0
 20
6.428571428571428
 10
0
 20
12.85714285714286
 10
3
 20
12.85714285714286
 10
3
 20
19.28571428571428
 10
0
 20
19.28571428571428
 10
0
 20
25.71428571428571
 10
3
 20
25.71428571428571
 10
3
 20
32.14285714285714
 10
0
 20
32.14285714285714
 10
0
 20
38.57142857142857
 10
3
 20
38.57142857142857
 10
3
 20
45
 10
18.57142857142857
 20
45
 10
18.57142857142857
 20
42
 10
37.14285714285715
 20
42
 10
37.14285714285715
 20
45
 10
55.71428571427857
 20
45
 10
55.71428571427857
 20
42
 10
74.28571428570714
 20
42
 10
74.28571428570714
 20
45
 10
92.85714285712857
 20
45
 10
92.85714285712857
 20
42
  0
ENDBLK
  5
A0
330
9E
100
AcDbEntity
  8
0
100
AcDbBlockEnd
  0
BLOCK
  5
A2
330
A1
100
AcDbEntity
  8
0
100
AcDbBlockBegin
  2
topbox-1
 70
    0
 10
0
 20
0
  3
topbox-1
  1

  0
LWPOLYLINE
  5
101
100
AcDbEntity
  8
0
  6
ByLayer
 62
  256
370
   -1
100
AcDbPolyline
 90
    4
 70
    1
 43
0
 10
-77.75
 20
-29
 10
-77.75
 20
-26.6
 10
-87.25
 20
-26.6
 10
-87.25
 20
-29
  0
LWPOLYLINE
  5
102
100
AcDbEntity
  8
0
  6
ByLayer
 62
  256
370
   -1
100
AcDbPolyline
 90
    6
 70
    1
 43
0
 10
-55
 20
-15
 10
-62.85714285714285
 20
-15
 10
-62.85714285714285
 20
-18
 10
-58
 20
-18
 10
-58
 20
-21.66666666666666
 10
-55
 20
-21.66666666666666
  0
LWPOLYLINE
  5
103
100
AcDbEntity
  8
0
  6
ByLayer
 62
  256
370
   -1
100
AcDbPolyline
 90
    4
 70
    1
 43
0
 10
-70.71428571428571
 20
-18
 10
-70.71428571428571
 20
-15
 10
-78.57142857142858
 20
-15
 10
-78.57142857142858
 20
-18
  0
LWPOLYLINE
  5
104
100
AcDbEntity
  8
0
  6
ByLayer
 62
  256
370
   -1
100
AcDbPolyline
 90
    4
 70
    1
 43
0
 10
-86.42857142857142
 20
-18
 10
-86.42857142857142
 20
-15
 10
-94.28571428571429
 20
-15
 10
-94.28571428571429
 20
-18
  0
LWPOLYLINE
  5
105
100
AcDbEntity
  8
0
  6
ByLayer
 62
  256
370
   -1
100
AcDbPolyline
 90
    6
 70
    1
 43
0
 10
-102.1428571428572
 20
-18
 10
-102.1428571428572
 20
-15
 10
-110
 20
-15
 10
-110
 20
-21.66666666666666
 10
-107
 20
-21.66666666666666
 10
-107
 20
-18
  0
LWPOLYLINE
  5
106
100
AcDbEntity
  8
0
  6
ByLayer
 62
  256
370
   -1
100
AcDbPolyline
 90
   60
 70
    1
 43
0
 10
-3.000000000000007
 20
-102.8571428571143
 10
-3.000000000000007
 20
-117
 10
-13.88888888888889
 20
-117
 10
-13.88888888888889
 20
-120
 10
-27.77777777777778
 20
-120
 10
-27.77777777777778
 20
-117
 10
-41.66666666665556
 20
-117
 10
-41.66666666665556
 20
-120
 10
-55.55555555554445
 20
-120
 10
-55.55555555554445
 20
-117
 10
-69.44444444442223
 20
-117
 10
-69.44444444442223
 20
-120
 10
-83.33333333331112
 20
-120
 10
-83.33333333331112
 20
-117
 10
-97.2222222221889
 20
-117
 10
-97.2222222221889
 20
-120
 10
-111.1111111110778
 20
-120
 10
-111.1111111110778
 20
-117
 10
-122
 20
-117
 10
-122
 20
-102.8571428571143
 10
-125
 20
-102.8571428571143
 10
-125
 20
-85.71428571425714
 10
-122
 20
-85.71428571425714
 10
-122
 20
-68.57142857141429
 10
-125
 20
-68.57142857141429
 10
-125
 20
-51.42857142855715
 10
-122
 20
-51.42857142855715
 10
-122
 20
-34.28571428571428
 10
-125
 20
-34.28571428571428
 10
-125
 20
-17.14285714285714
 10
-122
 20
-17.14285714285714
 10
-122
 20
-3.000000000000007
 10
-111.1111111110778
 20
-3
 10
-111.1111111110778
 20
0
 10
-97.2222222221889
 20
0
 10
-97.2222222221889
 20
-3
 10
-83.33333333331112
 20
-3
 10
-83.33333333331112
 20
0
 10
-69.44444444442223
 20
0
 10
-69.44444444442223
 20
-3
 10
-55.55555555554445
 20
-3
 10
-55.55555555554445
 20
0
 10
-41.66666666665556
 20
0
 10
-41.66666666665556
 20
-3
 10
-27.77777777777778
 20
-3
 10
-27.77777777777778
 20
0
 10
-13.88888888888889
 20
0
 10
-13.88888888888889
 20
-3
 10
-3.000000000000007
 20
-3.000000000000007
 10
-3.000000000000007
 20
-17.14285714285714
 10
0
 20
-17.14285714285714
 10
0
 20
-34.28571428571428
 10
-3.000000000000007
 20
-34.28571428571428
 10
-3.000000000000007
 20
-51.42857142855715
 10
0
 20
-51.42857142855715
 10
0
 20
-68.57142857141429
 10
-3.000000000000007
 20
-68.57142857141429
 10
-3.000000000000007
 20
-85.71428571425714
 10
0
 20
-85.71428571425714
 10
0
 20
-102.8571428571143
  0
CIRCLE
  5
107
100
AcDbEntity
  8
0
  6
ByLayer
 62
  256
370
   -1
100
AcDbCircle
 10
-51.49999999999999
 20
-85
 40
24.9
  0
CIRCLE
  5
108
100
AcDbEntity
  8
0
  6
ByLayer
 62
  256
370
   -1
100
AcDbCircle
 10
-91.5
 20
-85
 40
4.599999999999991
  0
CIRCLE
  5
109
100
AcDbEntity
  8
0
  6
ByLayer
 62
  256
370
   -1
100
AcDbCircle
 10
-100
 20
-102.5
 40
2.100000000000009
  0
CIRCLE
  5
10A
100
AcDbEntity
  8
0
  6
ByLayer
 62
  256
370
   -1
100
AcDbCircle
 10
-100
 20
-67.50000000000001
 40
2.100000000000009
  0
LWPOLYLINE
  5
10B
100
AcDbEntity
  8
0
  6
ByLayer
 62
  256
370
   -1
100
AcDbPolyline
 90
    6
 70
    1
 43
0
 10
-102.1428571428572
 20
-35
 10
-102.1428571428572
 20
-32
 10
-107
 20
-32
 10
-107
 20
-28.33333333333333
 10
-110
 20
-28.33333333333333
 10
-110
 20
-35
  0
LWPOLYLINE
  5
10C
100
AcDbEntity
  8
0
  6
ByLayer
 62
  256
370
   -1
100
AcDbPolyline
 90
    6
 70
    1
 43
0
 10
-55
 20
-28.33333333333333
 10
-58
 20
-28.33333333333333
 10
-58
 20
-32
 10
-62.85714285714285
 20
-32
 10
-62.85714285714285
 20
-35
 10
-55
 20
-35
  0
LWPOLYLINE
  5
10D
100
AcDbEntity
  8
0
  6
ByLayer
 62
  256
370
   -1
100
AcDbPolyline
 90
    4
 70
    1
 43
0
 10
-70.71428571428571
 20
-32
 10
-78.57142857142858
 20
-32
 10
-78.57142857142858
 20
-35
 10
-70.71428571428571
 20
-35
  0
LWPOLYLINE
  5
10E
100
AcDbEntity
  8
0
  6
ByLayer
 62
  256
370
   -1
100
AcDbPolyline
 90
    4
 70
    1
 43
0
 10
-86.42857142857142
 20
-32
 10
-94.28571428571429
 20
-32
 10
-94.28571428571429
 20
-35
 10
-86.42857142857142
 20
-35
  0
ENDBLK
  5
A3
330
A1
100
AcDbEntity
  8
0
100
AcDbBlockEnd
  0
BLOCK
  5
A5
330
A4
100
AcDbEntity
  8
0
100
AcDbBlockBegin
  2
backbox-3
 70
    0
 10
0
 20
0
  3
backbox-3
  1

  0
LWPOLYLINE
  5
10F
100
AcDbEntity
  8
0
  6
ByLayer
 62
  256
370
   -1
100
AcDbPolyline
 90
   52
 70
    1
 43
0
 10
102.8571428571143
 20
32
 10
102.8571428571143
 20
35
 10
117
 20
35
 10
117
 20
30
 10
120
 20
30
 10
120
 20
25
 10
117
 20
25
 10
117
 20
20
 10
120
 20
20
 10
120
 20
15
 10
117
 20
15
 10
117
 20
10
 10
120
 20
10
 10
120
 20
5
 10
117
 20
5
 10
117
 20
0
 10
102.8571428571428
 20
0
 10
102.8571428571428
 20
3
 10
85.71428571428571
 20
3
 10
85.71428571428571
 20
0
 10
68.57142857142857
 20
0
 10
68.57142857142857
 20
3
 10
51.42857142857143
 20
3
 10
51.42857142857143
 20
0
 10
34.28571428571428
 20
0
 10
34.28571428571428
 20
3
 10
17.14285714285714
 20
3
 10
17.14285714285714
 20
0
 10
3
 20
0
 10
3
 20
5
 10
0
 20
5
 10
0
 20
10
 10
3
 20
10
 10
3
 20
15
 10
0
 20
15
 10
0
 20
20
 10
3
 20
20
 10
3
 20
25
 10
0
 20
25
 10
0
 20
30
 10
3
 20
30
 10
3
 20
35
 10
17.14285714285714
 20
35
 10
17.14285714285714
 20
32
 10
34.28571428571428
 20
32
 10
34.28571428571428
 20
35
 10
51.42857142855715
 20
35
 10
51.42857142855715
 20
32
 10
68.57142857141429
 20
32
 10
68.57142857141429
 20
35
 10
85.71428571425714
 20
35
 10
85.71428571425714
 20
32
  0
ENDBLK
  5
A6
330
A4
100
AcDbEntity
  8
0
100
AcDbBlockEnd
  0
BLOCK
  5
A8
330
A7
100
AcDbEntity
  8
0
100
AcDbBlockBegin
  2
sidebox-4
 70
    0
 10
0
 20
0
  3
sidebox-4
  1

  0
LWPOLYLINE
  5
110
100
AcDbEntity
  8
0
  6
ByLayer
 62
  256
370
   -1
100
AcDbPolyline
 90
   60
 70
    1
 43
0
 10
111.1111111110778
 20
32
 10
111.1111111110778
 20
35
 10
125
 20
35
 10
125
 20
30
 10
122
 20
30
 10
122
 20
25
 10
125
 20
25
 10
125
 20
20
 10
122
 20
20
 10
122
 20
15
 10
125
 20
15
 10
125
 20
10
 10
122
 20
10
 10
122
 20
5
 10
125
 20
5
 10
125
 20
0
 10
111.1111111111111
 20
0
 10
111.1111111111111
 20
3
 10
97.22222222222223
 20
3
 10
97.22222222222223
 20
0
 10
83.33333333333334
 20
0
 10
83.33333333333334
 20
3
 10
69.44444444444444
 20
3
 10
69.44444444444444
 20
0
 10
55.55555555555556
 20
0
 10
55.55555555555556
 20
3
 10
41.66666666666667
 20
3
 10
41.66666666666667
 20
0
 10
27.77777777777778
 20
0
 10
27.77777777777778
 20
3
 10
13.88888888888889
 20
3
 10
13.88888888888889
 20
0
 10
0
 20
0
 10
0
 20
5
 10
3.000000000000007
 20
5
 10
3.000000000000007
 20
10
 10
0
 20
10
 10
0
 20
15
 10
3.000000000000007
 20
15
 10
3.000000000000007
 20
20
 10
0
 20
20
 10
0
 20
25
 10
3.000000000000007
 20
25
 10
3.000000000000007
 20
30
 10
0
 20
30
 10
0
 20
35
 10
13.88888888888889
 20
35
 10
13.88888888888889
 20
32
 10
27.77777777777778
 20
32
 10
27.77777777777778
 20
35
 10
41.66666666665556
 20
35
 10
41.66666666665556
 20
32
 10
55.55555555554445
 20
32
 10
55.55555555554445
 20
35
 10
69.44444444442223
 20
35
 10
69.44444444442223
 20
32
 10
83.33333333331112
 20
32
 10
83.33333333331112
 20
35
 10
97.2222222221889
 20
35
 10
97.2222222221889
 20
32
  0
ENDBLK
  5
A9
330
A7
100
AcDbEntity
  8
0
100
AcDbBlockEnd
  0
BLOCK
  5
AB
330
AA
100
AcDbEntity
  8
0
100
AcDbBlockBegin
  2
back_DXF-1
 70
    0
 10
0
 20
0
  3
back_DXF-1
  1

  0
LWPOLYLINE
  5
111
100
AcDbEntity
  8
0
  6
ByLayer
 62
  256
370
   -1
100
AcDbPolyline
 90
   52
 70
    1
 43
0
 10
-39.28571428574286
 20
25
 10
-39.28571428574286
 20
28
 10
-31.42857142858571
 20
28
 10
-31.42857142858571
 20
25
 10
-23.57142857144286
 20
25
 10
-23.57142857144286
 20
28
 10
-15.71428571428571
 20
28
 10
-15.71428571428571
 20
25
 10
-7.857142857142857
 20
25
 10
-7.857142857142857
 20
28
 10
0
 20
28
 10
0
 20
24
 10
-2.999999999999998
 20
24
 10
-2.999999999999998
 20
20
 10
0
 20
20
 10
0
 20
16
 10
-2.999999999999998
 20
16
 10
-2.999999999999998
 20
12
 10
0
 20
12
 10
0
 20
8
 10
-2.999999999999998
 20
8
 10
-2.999999999999998
 20
4
 10
0
 20
4
 10
0
 20
0
 10
-7.857142857142857
 20
0
 10
-7.857142857142857
 20
3
 10
-15.71428571428571
 20
3
 10
-15.71428571428571
 20
0
 10
-23.57142857142857
 20
0
 10
-23.57142857142857
 20
3
 10
-31.42857142857143
 20
3
 10
-31.42857142857143
 20
0
 10
-39.28571428571428
 20
0
 10
-39.28571428571428
 20
3
 10
-47.14285714285715
 20
3
 10
-47.14285714285715
 20
0
 10
-55
 20
0
 10
-55
 20
4
 10
-52
 20
4
 10
-52
 20
8
 10
-55
 20
8
 10
-55
 20
12
 10
-52
 20
12
 10
-52
 20
16
 10
-55
 20
16
 10
-55
 20
20
 10
-52
 20
20
 10
-52
 20
24
 10
-55
 20
24
 10
-55
 20
28
 10
-47.14285714288572
 20
28
 10
-47.14285714288572
 20
25
  0
ENDBLK
  5
AC
330
AA
100
AcDbEntity
  8
0
100
AcDbBlockEnd
  0
BLOCK
  5
AE
330
AD
100
AcDbEntity
  8
0
100
AcDbBlockBegin
  2
top_DXF-1
 70
    0
 10
0
 20
0
  3
top_DXF-1
  1

  0
LWPOLYLINE
  5
112
100
AcDbEntity
  8
0
  6
ByLayer
 62
  256
370
   -1
100
AcDbPolyline
 90
   36
 70
    1
 43
0
 10
-52
 20
-3
 10
-47.14285714288572
 20
-3
 10
-47.14285714288572
 20
0
 10
-39.28571428574286
 20
0
 10
-39.28571428574286
 20
-3
 10
-31.42857142858571
 20
-3
 10
-31.42857142858571
 20
0
 10
-23.57142857144286
 20
0
 10
-23.57142857144286
 20
-3
 10
-15.71428571428571
 20
-3
 10
-15.71428571428571
 20
0
 10
-7.857142857142857
 20
0
 10
-7.857142857142857
 20
-3
 10
-2.999999999999998
 20
-3
 10
-2.999999999999998
 20
-6.666666666666679
 10
0
 20
-6.666666666666679
 10
0
 20
-13.33333333333334
 10
-2.999999999999998
 20
-13.33333333333334
 10
-2.999999999999998
 20
-17
 10
-7.857142857142857
 20
-17
 10
-7.857142857142857
 20
-20
 10
-15.71428571428571
 20
-20
 10
-15.71428571428571
 20
-17
 10
-23.57142857144286
 20
-17
 10
-23.57142857144286
 20
-20
 10
-31.42857142858571
 20
-20
 10
-31.42857142858571
 20
-17
 10
-39.28571428574286
 20
-17
 10
-39.28571428574286
 20
-20
 10
-47.14285714288572
 20
-20
 10
-47.14285714288572
 20
-17
 10
-52
 20
-17
 10
-52
 20
-13.33333333333334
 10
-55
 20
-13.33333333333334
 10
-55
 20
-6.666666666666679
 10
-52
 20
-6.666666666666679
  0
ENDBLK
  5
AF
330
AD
100
AcDbEntity
  8
0
100
AcDbBlockEnd
  0
BLOCK
  5
B1
330
B0
100
AcDbEntity
  8
0
100
AcDbBlockBegin
  2
layout-1
 70
    0
 10
0
 20
0
  3
layout-1
  1

  0
INSERT
  5
113
100
AcDbEntity
  8
0
  6
ByLayer
 62
  256
370
   -1
100
AcDbBlockReference
  2
bottombox-1
 10
150.462871507083
 20
-57.11447775574987
 30
0
 41
1
 42
1
 43
0
 50
0
 70
    1
 71
    1
 44
0
 45
0
  0
INSERT
  5
114
100
AcDbEntity
  8
0
  6
ByLayer
 62
  256
370
   -1
100
AcDbBlockReference
  2
sidebox-4
 10
150.4126518624903
 20
-45.54160848058735
 30
0
 41
1
 42
1
 43
0
 50
0
 70
    1
 71
    1
 44
0
 45
0
  0
INSERT
  5
115
100
AcDbEntity
  8
0
  6
ByLayer
 62
  256
370
   -1
100
AcDbBlockReference
  2
backbox-3
 10
287.7544248044323
 20
-45.44508725069999
 30
0
 41
1
 42
1
 43
0
 50
0
 70
    1
 71
    1
 44
0
 45
0
  0
INSERT
  5
116
100
AcDbEntity
  8
0
  6
ByLayer
 62
  256
370
   -1
100
AcDbBlockReference
  2
back_DXF-1
 10
344.5671893711747
 20
-92.8902330793259
 30
0
 41
1
 42
1
 43
0
 50
0
 70
    1
 71
    1
 44
0
 45
0
  0
INSERT
  5
117
100
AcDbEntity
  8
0
  6
ByLayer
 62
  256
370
   -1
100
AcDbBlockReference
  2
front_DXF-1
 10
349.6392230094212
 20
-94.06055184220841
 30
0
 41
1
 42
1
 43
0
 50
0
 70
    1
 71
    1
 44
0
 45
0
  0
INSERT
  5
118
100
AcDbEntity
  8
0
  6
ByLayer
 62
  256
370
   -1
100
AcDbBlockReference
  2
top_DXF-1
 10
343.4635302117005
 20
-101.1863512241939
 30
0
 41
1
 42
1
 43
0
 50
0
 70
    1
 71
    1
 44
0
 45
0
  0
INSERT
  5
119
100
AcDbEntity
  8
0
  6
ByLayer
 62
  256
370
   -1
100
AcDbBlockReference
  2
side_DXF-2
 10
352.014489470083
 20
-133.9650283813271
 30
0
 41
1
 42
1
 43
0
 50
0
 70
    1
 71
    1
 44
0
 45
0
  0
INSERT
  5
11A
100
AcDbEntity
  8
0
  6
ByLayer
 62
  256
370
   -1
100
AcDbBlockReference
  2
side_DXF-2
 10
380.0426337058926
 20
-135.3901882577242
 30
0
 41
1
 42
1
 43
0
 50
0
 70
    1
 71
    1
 44
0
 45
0
  0
INSERT
  5
11B
100
AcDbEntity
  8
0
  6
ByLayer
 62
  256
370
   -1
100
AcDbBlockReference
  2
sidebox-4
 10
283.13176211089
 20
-176.2447713811077
 30
0
 41
1
 42
1
 43
0
 50
0
 70
    1
 71
    1
 44
0
 45
0
  0
ENDBLK
  5
B2
330
B0
100
AcDbEntity
  8
0
100
AcDbBlockEnd
  0
BLOCK
  5
B4
330
B3
100
AcDbEntity
  8
0
100
AcDbBlockBegin
  2
box_layout
 70
    0
 10
0
 20
0
  3
box_layout
  1

  0
INSERT
  5
11C
100
AcDbEntity
  8
0
  6
ByLayer
 62
  256
370
   -1
100
AcDbBlockReference
  2
bottombox-1
 10
6
 20
-5
 30
0
 41
1
 42
1
 43
0
 50
0
 70
    1
 71
    1
 44
0
 45
0
  0
INSERT
  5
11D
100
AcDbEntity
  8
0
  6
ByLayer
 62
  256
370
   -1
100
AcDbBlockReference
  2
front_DXF-1
 10
6
 20
-182.25
 30
0
 41
1
 42
1
 43
0
 50
0
 70
    1
 71
    1
 44
0
 45
0
  0
INSERT
  5
11E
100
AcDbEntity
  8
0
  6
ByLayer
 62
  256
370
   -1
100
AcDbBlockReference
  2
front_DXF-1
 10
135.75
 20
-182.25
 30
0
 41
1
 42
1
 43
0
 50
0
 70
    1
 71
    1
 44
0
 45
0
  0
INSERT
  5
11F
100
AcDbEntity
  8
0
  6
ByLayer
 62
  256
370
   -1
100
AcDbBlockReference
  2
side_DXF-2
 10
136.25
 20
-129
 30
0
 41
1
 42
1
 43
0
 50
0
 70
    1
 71
    1
 44
0
 45
0
  0
ENDBLK
  5
B5
330
B3
100
AcDbEntity
  8
0
100
AcDbBlockEnd
  0
ENDSEC
  0
SECTION
  2
ENTITIES
  0
LWPOLYLINE
  5
120
100
AcDbEntity
  8
0
  6
ByLayer
 62
  256
370
   -1
100
AcDbPolyline
 90
    4
 70
    1
 43
0
 10
-89.99999999999994
 20
-30.87718155080468
 10
-74.99999999999996
 20
-30.87718155080468
 10
-74.99999999999996
 20
-24.87718155080468
 10
-89.99999999999994
 20
-24.87718155080468
  0
LWPOLYLINE
  5
121
100
AcDbEntity
  8
0
  6
ByLayer
 62
  256
370
   -1
100
AcDbPolyline
 90
    6
 70
    1
 43
0
 10
-57.99999999999998
 20
-18
 10
-57.99999999999998
 20
-21.66666666666666
 10
-54.99999999999999
 20
-21.66666666666666
 10
-54.99999999999999
 20
-15
 10
-62.85714285714284
 20
-15
 10
-62.85714285714284
 20
-18
  0
LWPOLYLINE
  5
122
100
AcDbEntity
  8
0
  6
ByLayer
 62
  256
370
   -1
100
AcDbPolyline
 90
    6
 70
    1
 43
0
 10
-54.99999999999999
 20
-28.33333333333333
 10
-57.99999999999998
 20
-28.33333333333333
 10
-57.99999999999998
 20
-32
 10
-62.85714285714285
 20
-32
 10
-62.85714285714285
 20
-35
 10
-54.99999999999999
 20
-35
  0
LWPOLYLINE
  5
123
100
AcDbEntity
  8
0
  6
ByLayer
 62
  256
370
   -1
100
AcDbPolyline
 90
    4
 70
    1
 43
0
 10
-78.57142857142856
 20
-35
 10
-70.71428571428571
 20
-35
 10
-70.71428571428571
 20
-32
 10
-78.57142857142856
 20
-32
  0
LWPOLYLINE
  5
124
100
AcDbEntity
  8
0
  6
ByLayer
 62
  256
370
   -1
100
AcDbPolyline
 90
    4
 70
    1
 43
0
 10
-94.28571428571428
 20
-35
 10
-86.42857142857142
 20
-35
 10
-86.42857142857142
 20
-32
 10
-94.28571428571428
 20
-32
  0
LWPOLYLINE
  5
125
100
AcDbEntity
  8
0
  6
ByLayer
 62
  256
370
   -1
100
AcDbPolyline
 90
    6
 70
    1
 43
0
 10
-110
 20
-35
 10
-102.1428571428571
 20
-35
 10
-102.1428571428571
 20
-32
 10
-107
 20
-32
 10
-107
 20
-28.33333333333334
 10
-110
 20
-28.33333333333334
  0
LWPOLYLINE
  5
126
100
AcDbEntity
  8
0
  6
ByLayer
 62
  256
370
   -1
100
AcDbPolyline
 90
    4
 70
    1
 43
0
 10
-78.57142857142856
 20
-18
 10
-70.71428571428569
 20
-18
 10
-70.71428571428569
 20
-15
 10
-78.57142857142856
 20
-15
  0
LWPOLYLINE
  5
127
100
AcDbEntity
  8
0
  6
ByLayer
 62
  256
370
   -1
100
AcDbPolyline
 90
    4
 70
    1
 43
0
 10
-94.28571428571428
 20
-18
 10
-86.4285714285714
 20
-18
 10
-86.4285714285714
 20
-15
 10
-94.28571428571428
 20
-15
  0
LWPOLYLINE
  5
128
100
AcDbEntity
  8
0
  6
ByLayer
 62
  256
370
   -1
100
AcDbPolyline
 90
    6
 70
    1
 43
0
 10
-110
 20
-21.66666666666667
 10
-107
 20
-21.66666666666667
 10
-107
 20
-18.00000000000001
 10
-102.1428571428571
 20
-18
 10
-102.1428571428571
 20
-15
 10
-110
 20
-15
  0
CIRCLE
  5
129
100
AcDbEntity
  8
0
  6
ByLayer
 62
  256
370
   -1
100
AcDbCircle
 10
-100
 20
-77.50000000000001
 40
2.100000000000009
  0
CIRCLE
  5
12A
100
AcDbEntity
  8
0
  6
ByLayer
 62
  256
370
   -1
100
AcDbCircle
 10
-100
 20
-112.5
 40
2.100000000000009
  0
CIRCLE
  5
12B
100
AcDbEntity
  8
0
  6
ByLayer
 62
  256
370
   -1
100
AcDbCircle
 10
-91.5
 20
-95
 40
4.749999999999996
  0
CIRCLE
  5
12C
100
AcDbEntity
  8
0
  6
ByLayer
 62
  256
370
   -1
100
AcDbCircle
 10
-51.49999999999999
 20
-95
 40
20
  0
LWPOLYLINE
  5
12D
100
AcDbEntity
  8
0
  6
ByLayer
 62
  256
370
   -1
100
AcDbPolyline
 90
   60
 70
    1
 43
0
 10
-3.000000000000007
 20
-111.4285714285571
 10
-3.000000000000007
 20
-127
 10
-13.88888888888889
 20
-127
 10
-13.88888888888889
 20
-130
 10
-27.77777777777778
 20
-130
 10
-27.77777777777778
 20
-127
 10
-41.66666666665556
 20
-127
 10
-41.66666666665556
 20
-130
 10
-55.55555555554445
 20
-130
 10
-55.55555555554445
 20
-127
 10
-69.44444444442223
 20
-127
 10
-69.44444444442223
 20
-130
 10
-83.33333333331112
 20
-130
 10
-83.33333333331112
 20
-127
 10
-97.2222222221889
 20
-127
 10
-97.2222222221889
 20
-130
 10
-111.1111111110778
 20
-130
 10
-111.1111111110778
 20
-127
 10
-122
 20
-127
 10
-122
 20
-111.4285714285571
 10
-125
 20
-111.4285714285571
 10
-125
 20
-92.85714285712857
 10
-122
 20
-92.85714285712857
 10
-122
 20
-74.28571428570714
 10
-125
 20
-74.28571428570714
 10
-125
 20
-55.71428571427857
 10
-122
 20
-55.71428571427857
 10
-122
 20
-37.14285714285715
 10
-125
 20
-37.14285714285715
 10
-125
 20
-18.57142857142857
 10
-122
 20
-18.57142857142857
 10
-122
 20
-3.000000000000007
 10
-111.1111111110778
 20
-3
 10
-111.1111111110778
 20
0
 10
-97.2222222221889
 20
0
 10
-97.2222222221889
 20
-3
 10
-83.33333333331112
 20
-3
 10
-83.33333333331112
 20
0
 10
-69.44444444442223
 20
0
 10
-69.44444444442223
 20
-3
 10
-55.55555555554445
 20
-3
 10
-55.55555555554445
 20
0
 10
-41.66666666665556
 20
0
 10
-41.66666666665556
 20
-3
 10
-27.77777777777778
 20
-3
 10
-27.77777777777778
 20
0
 10
-13.88888888888889
 20
0
 10
-13.88888888888889
 20
-3
 10
-3.000000000000007
 20
-3.000000000000007
 10
-3.000000000000007
 20
-18.57142857142857
 10
0
 20
-18.57142857142857
 10
0
 20
-37.14285714285715
 10
-3.000000000000007
 20
-37.14285714285715
 10
-3.000000000000007
 20
-55.71428571427857
 10
0
 20
-55.71428571427857
 10
0
 20
-74.28571428570714
 10
-3.000000000000007
 20
-74.28571428570714
 10
-3.000000000000007
 20
-92.85714285712857
 10
0
 20
-92.85714285712857
 10
0
 20
-111.4285714285571
  0
CIRCLE
  5
12E
100
AcDbEntity
  8
0
  6
ByLayer
 62
  256
370
   -1
100
AcDbCircle
 10
-51.49999999999999
 20
-95
 40
24.6
  0
CIRCLE
  5
12F
100
AcDbEntity
  8
0
  6
ByLayer
 62
  256
370
   -1
100
AcDbCircle
 10
-51.49999999999999
 20
-95
 40
20.6
  0
INSERT
  5
130
100
AcDbEntity
  8
0
  6
ByLayer
 62
  256
370
   -1
100
AcDbBlockReference
  2
circle
 10
81.25000000000009
 20
0
 30
0
 41
1
 42
1
 43
0
 50
0
 70
    1
 71
    1
 44
0
 45
0
  0
INSERT
  5
131
100
AcDbEntity
  8
0
  6
ByLayer
 62
  256
370
   -1
100
AcDbBlockReference
  2
box_layout
 10
58.9116219794754
 20
25.90440115409557
 30
0
 41
1
 42
1
 43
0
 50
0
 70
    1
 71
    1
 44
0
 45
0
  0
ENDSEC
  0
SECTION
  2
OBJECTS
  0
DICTIONARY
  5
C
330
0
100
AcDbDictionary
281
    1
  3
ACAD_GROUP
350
D
  0
DICTIONARY
  5
D
330
C
100
AcDbDictionary
281
    1
  0
ENDSEC
  0
EOF
